<?xml version="1.0" standalone="no"?>
<!DOCTYPE svg PUBLIC "-//W3C//DTD SVG 20010904//EN"
 "http://www.w3.org/TR/2001/REC-SVG-20010904/DTD/svg10.dtd">
<svg version="1.0" xmlns="http://www.w3.org/2000/svg"
 width="2000.000000pt" height="2000.000000pt" viewBox="0 0 2000.000000 2000.000000"
 preserveAspectRatio="xMidYMid meet">

<g transform="translate(0.000000,2000.000000) scale(0.100000,-0.100000)"
fill="#000000" stroke="none">
<path d="M0 10000 l0 -10000 10000 0 10000 0 0 10000 0 10000 -10000 0 -10000
0 0 -10000z m15970 8908 l1 -143 69 73 70 72 60 0 c33 0 60 -4 60 -8 0 -4 -21
-28 -46 -52 -25 -25 -55 -58 -66 -73 l-20 -28 76 -104 76 -105 -65 0 -65 0
-52 71 -52 71 -23 -26 c-17 -20 -23 -40 -23 -72 l0 -44 -50 0 -50 0 0 255 0
255 50 0 50 0 0 -142z m2650 -113 l0 -255 -50 0 c-28 0 -50 5 -50 10 0 6 -13
4 -30 -5 -16 -8 -51 -15 -78 -15 -63 0 -109 30 -139 90 -47 93 -20 227 56 277
41 27 117 31 161 8 l30 -16 0 81 0 80 50 0 50 0 0 -255z m-7870 180 l0 -45
-75 0 -75 0 0 -195 0 -195 -55 0 -55 0 0 195 0 195 -70 0 -70 0 0 45 0 45 200
0 200 0 0 -45z m4184 31 c50 -21 76 -60 76 -117 0 -36 -6 -55 -25 -77 l-24
-29 23 -13 c50 -26 63 -125 24 -175 -36 -47 -73 -55 -238 -55 l-150 0 0 240 0
240 140 0 c97 0 151 -4 174 -14z m-664 -61 l0 -45 45 0 45 0 0 -45 0 -45 -45
0 -45 0 0 -78 c0 -94 13 -118 57 -109 27 5 31 3 42 -30 12 -33 12 -38 -5 -50
-10 -7 -42 -13 -72 -13 -48 0 -58 4 -88 34 l-34 34 0 105 0 106 -27 3 c-25 3
-28 7 -31 46 -3 41 -2 42 27 42 30 0 31 1 31 45 l0 45 50 0 50 0 0 -45z
m-3260 -75 c0 -49 -1 -50 -29 -50 -17 0 -42 -10 -58 -24 -27 -23 -28 -28 -31
-140 l-4 -116 -49 0 -49 0 0 185 0 185 50 0 c36 0 50 -4 50 -14 0 -11 8 -10
37 5 21 10 48 19 60 19 21 0 23 -5 23 -50z m295 20 c49 -46 55 -69 55 -215 l0
-135 -50 0 c-27 0 -50 5 -50 10 0 6 -11 3 -25 -6 -19 -12 -41 -15 -87 -12 -53
4 -65 9 -89 36 -39 44 -40 100 -1 142 29 34 78 49 154 50 41 0 46 2 41 19 -10
38 -39 54 -88 49 -25 -3 -54 -13 -64 -22 -21 -19 -22 -18 -45 37 l-15 38 42
20 c63 30 185 24 222 -11z m433 10 c51 -32 62 -70 62 -225 l0 -135 -50 0 -50
0 0 105 c0 70 -5 117 -15 141 -14 33 -17 35 -57 32 -62 -4 -78 -40 -78 -175
l0 -103 -50 0 -50 0 0 185 0 185 50 0 c28 0 50 -5 50 -10 0 -6 12 -4 28 4 40
22 120 20 160 -4z m377 6 c19 -8 35 -17 35 -19 0 -3 -7 -21 -16 -42 -11 -28
-19 -35 -32 -30 -71 30 -142 25 -142 -9 0 -19 21 -30 92 -45 77 -16 108 -48
108 -110 0 -52 -19 -81 -67 -105 -52 -26 -183 -18 -232 13 -13 8 -12 15 4 50
10 23 20 41 22 41 2 0 16 -6 31 -14 64 -32 147 -26 140 11 -2 13 -24 22 -78
34 -89 21 -120 48 -120 109 0 54 16 84 58 108 45 26 145 30 197 8z m406 -9
c49 -32 79 -97 79 -172 0 -75 -30 -140 -79 -172 -41 -27 -117 -31 -161 -8
l-30 16 0 -76 0 -75 -50 0 -50 0 0 250 0 250 50 0 c28 0 50 -4 50 -9 0 -6 12
-3 28 5 43 22 123 18 163 -9z m384 -7 c49 -46 55 -69 55 -215 l0 -135 -50 0
c-27 0 -50 5 -50 10 0 6 -11 3 -25 -6 -19 -12 -41 -15 -87 -12 -53 4 -65 9
-89 36 -39 44 -40 100 -1 142 29 34 78 49 154 50 41 0 46 2 41 19 -10 38 -39
54 -88 49 -25 -3 -54 -13 -64 -22 -21 -19 -22 -18 -45 37 l-15 38 42 20 c63
30 185 24 222 -11z m365 -20 c0 -49 -1 -50 -29 -50 -17 0 -42 -10 -58 -24 -27
-23 -28 -28 -31 -140 l-4 -116 -49 0 -49 0 0 185 0 185 50 0 c36 0 50 -4 50
-14 0 -11 8 -10 37 5 21 10 48 19 60 19 21 0 23 -5 23 -50z m294 27 c51 -29
86 -93 86 -159 l0 -48 -125 0 c-136 0 -152 -8 -99 -49 32 -25 90 -27 123 -5
22 16 24 15 53 -14 35 -34 32 -45 -22 -72 -46 -24 -135 -27 -183 -6 -39 16
-82 61 -96 99 -14 36 -14 128 0 164 38 100 167 145 263 90z m444 3 c51 -32 62
-70 62 -225 l0 -135 -50 0 -50 0 0 105 c0 70 -5 117 -15 141 -14 33 -17 35
-57 32 -62 -4 -78 -40 -78 -175 l0 -103 -50 0 -50 0 0 185 0 185 50 0 c28 0
50 -5 50 -10 0 -6 12 -4 28 4 40 22 120 20 160 -4z m1337 -10 c49 -46 55 -69
55 -215 l0 -135 -50 0 c-27 0 -50 5 -50 10 0 6 -11 3 -25 -6 -19 -12 -41 -15
-87 -12 -53 4 -65 9 -89 36 -39 44 -40 100 -1 142 29 34 78 49 154 50 41 0 46
2 41 19 -10 38 -39 54 -88 49 -25 -3 -54 -13 -64 -22 -21 -19 -22 -18 -45 37
l-15 38 42 20 c63 30 185 24 222 -11z m403 11 c20 -11 45 -32 54 -48 l17 -30
-40 -22 -39 -22 -31 25 c-53 45 -110 26 -129 -42 -19 -71 19 -142 76 -142 13
0 36 12 53 26 l31 25 39 -22 40 -22 -17 -30 c-23 -40 -80 -67 -142 -67 -61 0
-106 18 -142 56 -36 38 -48 74 -48 139 0 30 5 66 11 82 14 37 57 82 94 99 45
20 129 17 173 -5z m756 -2 c21 -17 26 -18 26 -5 0 12 11 16 50 16 l50 0 0
-188 c0 -175 -2 -191 -22 -232 -34 -65 -66 -84 -151 -88 -76 -4 -139 8 -172
32 -19 13 -19 15 -1 55 11 22 21 41 23 41 1 0 20 -9 40 -20 80 -43 163 -15
178 59 l7 34 -27 -21 c-39 -31 -129 -31 -175 1 -62 41 -75 70 -75 157 0 87 13
116 75 158 45 30 136 31 174 1z m436 -29 c0 -49 -1 -50 -29 -50 -17 0 -42 -10
-58 -24 -27 -23 -28 -28 -31 -140 l-4 -116 -49 0 -49 0 0 185 0 185 50 0 c36
0 50 -4 50 -14 0 -11 8 -10 37 5 21 10 48 19 60 19 21 0 23 -5 23 -50z m293
36 c39 -16 82 -61 96 -99 6 -16 11 -52 11 -82 0 -65 -12 -101 -48 -139 -36
-38 -81 -56 -142 -56 -61 0 -106 18 -142 56 -36 38 -48 74 -48 139 0 30 5 66
11 82 14 37 57 82 94 99 39 17 127 18 168 0z m895 -6 c51 -32 62 -70 62 -225
l0 -135 -50 0 -50 0 0 105 c0 70 -5 117 -15 141 -14 33 -17 35 -57 32 -62 -4
-78 -40 -78 -175 l0 -103 -50 0 -50 0 0 185 0 185 50 0 c28 0 50 -5 50 -10 0
-6 12 -4 28 4 40 22 120 20 160 -4z m-638 -95 c0 -70 5 -117 15 -141 14 -33
17 -35 57 -32 62 4 78 40 78 176 l0 102 50 0 50 0 0 -185 0 -185 -50 0 c-28 0
-50 5 -50 10 0 6 -13 4 -30 -5 -41 -21 -118 -19 -156 4 -53 32 -64 72 -64 225
l0 136 50 0 50 0 0 -105z m-9560 -182 l25 -28 -35 30 c-55 47 -56 48 -35 37
11 -6 31 -23 45 -39z m86 -97 c13 -22 14 -28 3 -19 -8 6 -25 31 -38 55 -19 36
-19 39 -3 19 11 -14 28 -38 38 -55z m-660 5 c-6 -9 -46 -22 -46 -15 0 3 10 9
23 14 29 11 29 11 23 1z m697 -93 c4 -10 4 -18 2 -18 -6 0 -35 56 -35 67 0 10
25 -27 33 -49z m27 -157 c0 -35 -3 -61 -6 -58 -4 4 -7 38 -8 76 -1 38 2 64 6
58 4 -7 8 -41 8 -76z m-1334 14 c-11 -8 -25 -15 -30 -15 -6 1 0 7 14 15 32 19
40 18 16 0z m-159 -142 c-85 -116 -127 -246 -127 -393 0 -27 -5 -52 -12 -56
-8 -5 -10 3 -5 28 3 19 1 41 -3 49 -5 7 -5 16 0 19 5 3 11 38 13 77 4 62 11
84 54 166 48 91 103 171 111 162 3 -2 -11 -26 -31 -52z m3943 34 c0 -13 -9
-32 -20 -42 -26 -23 -25 -29 5 -59 33 -33 33 -79 0 -111 -19 -20 -34 -25 -78
-25 -64 0 -93 17 -82 49 5 18 12 21 28 16 51 -16 73 -16 86 -1 18 21 -2 46
-35 46 -31 0 -32 31 -3 71 l20 29 -45 0 c-42 0 -46 2 -46 25 0 25 1 25 85 25
83 0 85 -1 85 -23z m288 -11 c35 -33 37 -38 37 -96 0 -58 -2 -63 -37 -96 -37
-33 -40 -34 -123 -34 l-85 0 0 130 0 130 85 0 c83 0 86 -1 123 -34z m404 23
c27 -14 51 -74 43 -109 -3 -15 -15 -36 -25 -45 -19 -17 -19 -18 -1 -44 34 -50
34 -51 -3 -51 -29 0 -38 6 -56 35 -13 20 -30 35 -41 35 -15 0 -19 -7 -19 -35
0 -33 -2 -35 -35 -35 l-35 0 0 130 0 130 76 0 c41 0 84 -5 96 -11z m298 -14
c0 -24 -3 -25 -60 -25 l-60 0 0 -30 c0 -30 1 -30 55 -30 52 0 55 -1 55 -25 0
-24 -3 -25 -55 -25 -52 0 -55 -1 -55 -25 0 -23 4 -24 63 -27 56 -3 62 -5 65
-25 3 -23 1 -23 -97 -23 l-101 0 0 130 0 130 95 0 c95 0 95 0 95 -25z m184
-51 l56 -77 0 77 0 76 30 0 30 0 0 -130 0 -130 -28 0 c-23 0 -37 12 -78 67
l-49 68 -3 -68 -3 -67 -34 0 -35 0 0 130 0 130 29 0 c25 0 38 -11 85 -76z
m404 42 c35 -33 37 -38 37 -96 0 -58 -2 -63 -37 -96 -37 -33 -40 -34 -123 -34
l-85 0 0 130 0 130 85 0 c83 0 86 -1 123 -34z m292 9 c0 -24 -3 -25 -60 -25
l-60 0 0 -30 c0 -30 1 -30 55 -30 52 0 55 -1 55 -25 0 -24 -3 -25 -55 -25 -52
0 -55 -1 -55 -25 0 -23 4 -24 63 -27 56 -3 62 -5 65 -25 3 -23 1 -23 -97 -23
l-101 0 0 130 0 130 95 0 c95 0 95 0 95 -25z m242 14 c27 -14 51 -74 43 -109
-3 -15 -15 -36 -25 -45 -19 -17 -19 -18 -1 -44 34 -50 34 -51 -3 -51 -29 0
-38 6 -56 35 -13 20 -30 35 -41 35 -15 0 -19 -7 -19 -35 0 -33 -2 -35 -35 -35
l-35 0 0 130 0 130 76 0 c41 0 84 -5 96 -11z m382 -2 c25 -18 23 -63 -3 -91
-21 -22 -21 -23 -2 -40 17 -16 19 -16 24 3 3 15 10 18 27 14 19 -5 21 -11 17
-39 -3 -19 -1 -36 4 -39 12 -8 11 -18 -5 -40 -11 -16 -16 -17 -29 -6 -12 9
-21 10 -36 2 -11 -6 -37 -11 -59 -11 -82 0 -121 72 -68 125 14 14 20 27 15 30
-15 10 -10 67 8 87 19 21 81 24 107 5z m438 2 c27 -15 49 -71 42 -109 -9 -43
-47 -70 -100 -70 -44 0 -44 0 -44 -35 0 -33 -2 -35 -35 -35 l-35 0 0 130 0
130 76 0 c41 0 84 -5 96 -11z m272 -2 c15 -11 16 -18 8 -34 -10 -18 -15 -19
-51 -10 -30 8 -43 8 -55 -2 -23 -19 -6 -36 49 -50 74 -19 98 -79 49 -128 -23
-23 -31 -25 -90 -21 -71 4 -89 15 -79 48 5 17 12 20 28 15 68 -22 123 -12 99
18 -7 8 -28 18 -46 21 -81 15 -111 81 -61 131 19 20 34 25 78 25 29 0 61 -6
71 -13z m294 -21 c35 -33 37 -38 37 -96 0 -58 -2 -63 -37 -96 -37 -33 -40 -34
-123 -34 l-85 0 0 130 0 130 85 0 c83 0 86 -1 123 -34z m422 9 c0 -24 -3 -25
-60 -25 l-60 0 0 -35 0 -35 55 0 c52 0 55 -1 55 -25 0 -24 -3 -25 -55 -25
l-55 0 0 -45 c0 -45 0 -45 -35 -45 l-35 0 0 130 0 130 95 0 c95 0 95 0 95 -25z
m130 -105 l0 -130 -35 0 -35 0 0 130 0 130 35 0 35 0 0 -130z m140 25 l0 -104
58 -3 c50 -3 57 -6 60 -25 3 -22 1 -23 -92 -23 l-96 0 0 130 0 130 35 0 35 0
0 -105z m360 80 c0 -24 -3 -25 -60 -25 l-60 0 0 -30 c0 -30 1 -30 55 -30 52 0
55 -1 55 -25 0 -24 -3 -25 -55 -25 -52 0 -55 -1 -55 -25 0 -23 4 -24 63 -27
56 -3 62 -5 65 -25 3 -23 1 -23 -97 -23 l-101 0 0 130 0 130 95 0 c95 0 95 0
95 -25z m-8561 -82 c-34 -37 -71 -102 -64 -113 3 -5 -2 -13 -11 -18 -10 -5
-18 -18 -19 -28 -1 -11 -7 -30 -15 -44 -8 -14 -15 -34 -17 -44 -2 -11 -10 -27
-18 -36 -17 -18 -20 -40 -6 -40 5 0 7 -10 3 -22 l-5 -22 -9 24 c-10 26 0 90
13 90 5 0 9 10 9 22 0 48 124 258 152 258 7 0 0 -12 -13 -27z m1704 10 c-7 -2
-19 -2 -25 0 -7 3 -2 5 12 5 14 0 19 -2 13 -5z m-156 -9 c-3 -3 -12 -4 -19 -1
-8 3 -5 6 6 6 11 1 17 -2 13 -5z m403 -100 c94 -86 166 -239 177 -383 7 -88
-15 -311 -28 -289 -11 17 -9 117 1 123 5 3 6 21 3 40 -3 19 -2 35 3 35 8 0 6
45 -9 165 -8 61 -40 151 -67 185 -15 19 -33 46 -40 60 -15 29 -32 47 -74 78
-16 12 -25 22 -18 22 7 0 30 -16 52 -36z m-2124 -299 c-15 -15 -16 -15 -16 3
0 24 11 35 23 23 6 -6 4 -16 -7 -26z m-29 -112 c-7 -28 -16 -55 -21 -60 -5 -4
-6 1 -3 12 3 11 11 40 17 64 16 60 21 48 7 -16z m1596 11 c87 -37 170 -113
309 -288 103 -129 130 -171 188 -291 56 -115 270 -631 270 -650 0 -3 -9 -5
-19 -5 -25 0 -52 -39 -80 -113 -41 -113 -78 -167 -114 -167 -10 0 -47 16 -83
36 -113 63 -193 57 -424 -34 -251 -97 -310 -141 -375 -277 -35 -74 -52 -98
-73 -106 -37 -15 -127 -5 -246 25 -54 14 -112 26 -130 26 -42 -1 -101 -29
-155 -74 -43 -36 -46 -37 -59 -19 -37 47 -110 221 -116 278 -10 79 -41 191
-76 274 -39 92 -63 189 -56 231 3 19 12 80 21 135 9 56 16 159 16 234 0 141
18 257 45 299 21 32 165 124 277 177 51 25 188 77 303 116 232 79 308 111 386
162 104 68 103 68 191 31z m548 -126 c11 -21 11 -22 -4 -9 -10 7 -17 17 -17
22 0 15 9 10 21 -13z m-2336 -106 c-6 -5 -33 -29 -61 -53 l-51 -44 54 53 c30
28 57 52 60 52 4 0 3 -4 -2 -8z m2526 -133 c12 -6 18 -13 15 -16 -13 -14 -46
31 -44 61 l1 31 4 -32 c3 -20 12 -37 24 -44z m-2687 -31 c-4 -7 -14 -21 -23
-32 -9 -10 -15 -21 -15 -25 2 -8 -5 -31 -19 -58 -11 -23 -27 -31 -27 -13 0 17
72 140 82 140 5 0 6 -6 2 -12z m-89 -252 c0 -24 -3 -48 -7 -52 -5 -4 -8 16 -8
44 0 29 3 52 8 52 4 0 7 -20 7 -44z m3105 -59 c0 -37 -6 -82 -14 -100 -13 -33
-75 -102 -83 -94 -2 3 15 33 39 68 43 62 43 63 40 143 -1 57 1 76 8 66 5 -8
10 -46 10 -83z m-3099 -110 c7 -32 16 -60 21 -63 4 -3 8 -15 8 -27 1 -12 14
-44 31 -72 32 -54 119 -233 119 -245 0 -4 6 -12 13 -18 21 -18 19 -84 -3 -134
l-20 -46 24 -53 c25 -54 29 -56 27 -9 l-1 25 14 -25 c8 -14 10 -27 5 -28 -5
-2 -16 -17 -25 -34 -9 -17 -11 -27 -6 -24 12 7 25 -21 16 -35 -3 -5 -2 -9 3
-8 34 6 44 -2 41 -35 -1 -21 5 -42 14 -53 8 -10 23 -33 32 -51 10 -20 21 -30
28 -25 9 5 9 8 0 11 -7 2 -12 11 -12 20 0 10 -14 30 -30 45 -17 16 -28 33 -24
38 6 10 74 -57 74 -73 0 -14 29 -46 65 -74 19 -15 19 -15 -4 -8 -15 4 -26 1
-32 -7 -8 -14 6 -39 23 -39 6 0 5 7 -2 15 -8 9 -9 15 -2 15 6 0 14 -5 17 -10
4 -7 13 -6 26 1 11 5 25 8 32 5 7 -3 3 -8 -10 -11 -14 -5 -20 -12 -16 -23 5
-11 3 -13 -6 -7 -10 6 -11 3 -2 -14 13 -24 23 -28 15 -6 -5 11 -2 13 10 9 9
-3 16 -15 16 -25 0 -10 5 -19 10 -19 6 0 10 -6 10 -14 0 -7 9 -16 21 -19 12
-3 18 -10 15 -16 -7 -10 19 -41 35 -41 6 0 3 7 -5 16 -20 20 -20 23 2 18 21
-6 47 -54 29 -54 -7 -1 -1 -10 12 -21 25 -20 41 -19 24 3 -6 7 -13 28 -16 46
-5 24 -3 32 8 32 22 0 68 -20 62 -26 -11 -11 41 -99 80 -137 39 -38 98 -62
127 -51 14 5 11 12 -16 44 -73 82 -71 77 -21 84 78 10 100 36 72 87 -6 11 -9
25 -7 30 2 6 14 -16 28 -48 13 -32 50 -105 82 -163 l58 -105 -25 -21 c-13 -12
-22 -24 -19 -27 12 -11 -61 -29 -102 -24 -35 4 -44 2 -40 -9 4 -9 0 -11 -15
-5 -11 4 -21 11 -22 16 -1 6 -20 22 -43 38 -23 15 -60 47 -81 70 -22 23 -95
91 -164 152 -252 223 -314 285 -359 360 -17 28 -35 57 -40 65 -5 8 -19 48 -31
88 -20 65 -21 85 -14 195 11 177 9 193 -26 261 -101 194 -117 236 -133 351 -8
55 8 17 25 -58z m2979 -267 c45 -90 70 -184 70 -267 0 -94 -15 -147 -55 -189
l-31 -33 4 -174 4 -174 102 24 c138 31 429 79 611 100 219 25 863 25 1095 0
340 -38 800 -131 1169 -238 673 -195 1310 -529 1926 -1013 657 -515 1234
-1235 1611 -2011 181 -373 301 -710 404 -1144 21 -90 41 -165 43 -168 3 -2 49
5 104 16 167 34 294 44 518 38 211 -5 302 -16 475 -58 786 -193 1406 -785
1621 -1549 54 -191 71 -308 76 -527 10 -389 -57 -693 -228 -1031 -292 -579
-805 -985 -1470 -1166 -124 -34 -316 -76 -346 -76 -12 0 -23 -4 -23 -10 0 -5
6 -10 13 -10 50 0 354 -142 536 -249 728 -430 1225 -1211 1312 -2059 15 -144
6 -512 -15 -642 -44 -274 -130 -549 -236 -761 -387 -770 -1089 -1276 -1961
-1416 -160 -25 -593 -25 -759 1 -459 71 -838 224 -1230 496 -52 37 -151 105
-219 153 -139 97 -255 157 -351 182 -89 23 -379 31 -562 16 -124 -11 -308 -33
-788 -97 -506 -67 -751 -86 -1100 -87 -157 0 -339 5 -405 12 -636 62 -1178
241 -1696 557 -228 140 -534 373 -833 635 l-130 113 45 18 c139 59 204 111
244 192 22 46 27 70 32 188 7 153 3 179 -29 197 -23 11 -23 14 -21 174 15 962
93 1451 476 2957 41 162 91 378 111 480 20 102 53 266 72 365 115 585 241 883
524 1234 96 119 259 277 305 297 39 16 44 24 16 24 -25 0 -143 -89 -290 -219
-65 -56 -143 -115 -180 -134 -81 -42 -226 -91 -247 -83 -8 3 -12 2 -9 -4 3 -6
-3 -10 -15 -10 -12 0 -19 4 -16 9 10 16 -241 -1 -274 -19 -11 -6 -35 -12 -53
-14 -52 -5 -119 -41 -166 -89 -24 -26 -48 -44 -53 -41 -4 3 -8 -3 -8 -13 0
-10 -5 -25 -11 -33 -9 -12 -10 -11 -6 8 3 12 4 22 3 22 -2 0 -17 -23 -35 -51
-28 -45 -35 -51 -59 -46 -25 5 -25 4 -7 -9 10 -8 14 -14 8 -14 -28 0 -45 33
-40 75 10 70 42 127 118 209 57 61 88 86 136 108 35 15 68 28 75 28 7 0 20 4
28 10 12 8 12 11 -2 27 -8 10 -17 24 -19 30 -6 20 -242 -141 -293 -200 -24
-29 -67 -76 -95 -106 -28 -30 -72 -86 -98 -124 -26 -38 -57 -76 -70 -84 -12
-8 -20 -20 -17 -27 3 -6 -4 0 -16 14 -25 28 -23 55 10 161 38 121 192 297 339
388 55 34 103 66 106 71 3 5 -3 14 -14 20 -16 8 -36 3 -103 -29 -46 -21 -100
-51 -120 -67 -65 -51 -280 -327 -318 -407 -12 -26 -28 -51 -36 -58 -7 -6 -11
-16 -7 -21 3 -6 0 -9 -8 -6 -27 9 -40 74 -28 146 14 92 36 137 132 270 98 137
150 186 257 241 44 23 80 46 80 52 0 15 -17 10 -70 -21 -28 -16 -53 -30 -55
-30 -20 0 -150 -109 -207 -174 -40 -44 -77 -86 -82 -92 -6 -6 -27 -31 -46 -55
-49 -62 -115 -129 -128 -129 -16 0 -42 30 -42 48 0 53 88 192 207 327 67 76
105 107 241 199 165 111 185 126 158 126 -8 0 -16 -4 -18 -9 -2 -5 -122 -5
-283 1 -154 5 -523 7 -820 4 -491 -4 -544 -6 -578 -22 -20 -10 -37 -21 -37
-25 0 -5 -17 -13 -37 -18 -256 -70 -285 -82 -568 -231 -206 -108 -330 -181
-548 -324 -340 -223 -513 -364 -659 -537 -100 -117 -214 -343 -242 -476 -36
-169 -29 -515 19 -948 60 -545 122 -877 286 -1545 75 -304 80 -327 68 -367 -6
-24 -9 -64 -7 -90 5 -50 95 -352 128 -428 42 -98 144 -163 309 -197 80 -17
123 -19 256 -15 88 2 154 2 147 0 -9 -4 -6 -11 10 -25 19 -16 20 -21 8 -28
-21 -13 -5 -12 66 5 74 17 153 52 213 93 25 16 52 28 60 25 14 -4 14 -4 1 6
-15 11 -13 12 25 15 11 0 21 9 23 21 3 20 3 20 -12 1 -9 -11 -19 -17 -22 -13
-12 12 14 32 107 88 111 65 234 178 273 250 38 69 43 148 21 309 -34 251 -60
341 -105 355 -11 3 -22 16 -24 28 -20 95 -101 408 -175 673 -224 803 -315
1176 -323 1328 l-2 49 72 18 c39 11 109 33 154 49 95 35 108 37 55 9 -32 -17
-36 -22 -27 -39 6 -11 15 -20 20 -20 6 0 10 -7 10 -16 0 -8 4 -12 10 -9 10 6
60 -38 60 -54 0 -5 14 -14 30 -20 17 -5 30 -15 30 -21 0 -7 8 -9 20 -5 15 5
20 2 20 -13 0 -16 12 -21 74 -31 59 -10 80 -10 98 0 22 12 22 12 3 21 -13 5
-7 6 19 2 31 -4 41 -2 53 16 8 11 19 18 24 14 11 -6 79 33 79 47 0 5 4 9 10 9
5 0 31 15 57 33 27 19 56 37 66 40 9 4 17 11 17 17 0 5 7 10 15 10 7 0 18 6
22 13 4 6 22 19 38 27 45 23 119 72 127 86 4 6 19 15 34 18 38 10 164 142 164
172 0 7 9 16 21 19 11 4 18 9 15 12 -3 3 1 15 9 27 16 22 21 71 6 62 -5 -3
-12 1 -15 10 -4 10 -2 13 6 8 7 -4 8 -3 4 4 -4 7 -2 12 5 12 7 0 10 2 7 5 -3
3 -24 -2 -48 -10 -73 -26 -54 -11 38 30 75 33 238 125 336 190 36 24 37 27
-50 -120 -263 -442 -425 -806 -498 -1115 -103 -431 -232 -1617 -277 -2535 -6
-132 -13 -241 -14 -243 -1 -1 -33 15 -72 37 -156 89 -286 130 -432 138 l-114
6 6 -24 c4 -13 23 -109 43 -214 43 -231 60 -289 119 -403 31 -61 45 -101 45
-128 0 -121 -187 -217 -385 -197 -53 5 -66 11 -109 50 -26 23 -53 43 -60 43
-6 0 5 -12 24 -27 19 -15 47 -40 62 -55 23 -25 33 -28 88 -28 67 0 73 -4 110
-65 13 -22 28 -43 33 -46 5 -4 7 -11 4 -16 -3 -5 1 -50 10 -99 8 -49 17 -104
20 -121 3 -18 9 -33 14 -33 5 0 9 -15 9 -34 0 -19 5 -36 10 -38 12 -4 22 -248
10 -248 -5 0 -6 -8 -4 -17 3 -10 -1 -36 -9 -58 -8 -24 -11 -51 -6 -67 6 -22 3
-30 -17 -43 -27 -17 -32 -45 -8 -45 8 0 12 5 9 11 -4 6 3 17 15 26 12 8 19 20
17 27 -2 6 0 20 5 31 8 18 8 18 4 -3 -2 -13 1 -22 9 -22 15 0 27 48 14 56 -5
3 -9 10 -9 17 0 6 6 2 14 -9 18 -24 30 -13 30 31 0 19 3 30 7 23 4 -7 15 4 29
28 12 21 37 66 55 99 19 33 34 65 34 72 1 7 12 23 24 37 13 14 24 31 24 38 0
7 10 33 21 57 12 25 29 76 37 115 8 39 19 89 25 111 12 49 12 86 1 103 -6 11
-15 10 -44 -4 -20 -10 -39 -15 -42 -12 -6 5 21 80 50 144 24 52 29 134 11 187
-21 62 -57 118 -98 152 -18 15 -25 23 -14 17 41 -21 116 -106 132 -151 31 -85
61 -147 93 -191 73 -100 90 -253 47 -421 -82 -323 -384 -887 -581 -1084 -142
-142 -307 -214 -514 -223 -72 -3 -134 0 -170 8 -139 31 -253 123 -317 257 -34
70 -38 87 -42 179 -7 167 35 325 189 711 88 221 103 268 128 420 18 107 50
203 67 203 3 0 14 -5 24 -10 17 -9 20 -6 26 17 9 36 32 63 56 63 17 0 18 8 14
123 -4 103 -30 334 -39 343 -1 1 -74 -60 -162 -137 -505 -443 -757 -596 -1195
-728 -264 -80 -482 -112 -770 -112 -526 0 -1014 149 -1445 442 -610 414 -1009
1068 -1097 1798 -18 150 -15 494 6 636 100 687 447 1286 991 1711 167 131 305
215 510 311 266 124 532 199 826 233 146 17 554 7 717 -18 123 -18 124 -18
207 3 82 20 185 77 185 101 0 6 -11 65 -24 130 -70 348 -96 593 -103 976 -10
535 29 882 163 1446 121 515 228 818 434 1237 228 463 537 920 896 1325 128
145 374 386 524 514 172 147 501 389 693 511 52 33 73 51 65 57 -22 13 -2 9
28 -7 17 -9 30 -11 32 -5 2 6 8 10 13 10 4 0 6 -8 2 -17 -5 -15 -3 -16 8 -5
16 14 49 16 49 2 0 -5 5 -10 11 -10 5 0 8 4 5 8 -3 5 18 7 47 4 29 -2 63 1 77
6 24 9 25 13 27 108 0 55 5 183 10 286 9 177 10 189 33 213 18 19 34 25 65 25
80 0 92 -35 100 -281 3 -98 8 -185 11 -193 8 -22 88 -58 140 -64 l44 -5 113
110 c61 60 156 152 210 204 96 91 210 234 282 355 65 108 107 130 155 79 31
-33 24 -74 -35 -192 l-45 -92 34 -46 c20 -25 41 -65 47 -88 7 -23 22 -64 35
-91 13 -28 24 -60 24 -73 0 -13 4 -23 9 -23 5 0 38 31 75 70 71 76 129 182
130 238 0 17 3 32 7 32 4 0 6 12 5 28 -2 15 1 30 7 34 18 11 19 119 2 198 -9
41 -16 86 -15 99 0 13 -4 29 -9 35 -12 16 -19 76 -9 82 14 9 9 24 -6 18 -8 -3
-17 -1 -21 5 -3 6 1 11 10 11 12 0 15 6 10 23 -4 12 -13 27 -21 33 -18 15 -18
25 1 18 17 -7 21 11 4 22 -6 3 -9 15 -6 25 3 10 0 17 -5 16 -6 -1 -13 4 -15
11 -3 7 1 10 10 6 14 -5 14 0 2 41 -8 25 -22 59 -32 76 -14 24 -15 31 -5 38
10 6 8 20 -13 66 -14 32 -24 60 -22 61 2 2 20 -13 39 -34 40 -41 98 -148 98
-180 0 -29 15 -35 35 -15 15 14 17 30 12 88 -8 107 -63 225 -105 225 -12 0 -9
7 13 25 l30 24 19 -22 c10 -12 31 -47 46 -77z m-2773 -362 c-3 -8 -6 -5 -6 6
-1 11 2 17 5 13 3 -3 4 -12 1 -19z m46 -138 c3 -11 1 -18 -4 -14 -5 3 -9 12
-9 20 0 20 7 17 13 -6z m1971 -67 c4 -5 12 -9 17 -9 23 -3 21 -7 -16 -24 -35
-17 -36 -19 -10 -14 17 3 56 12 88 20 72 17 129 18 145 2 37 -37 -17 -149 -92
-193 -22 -13 -84 -41 -136 -61 -121 -47 -214 -51 -298 -14 -29 12 -49 26 -44
29 5 3 12 16 16 29 9 27 49 57 143 107 76 41 91 56 30 30 -21 -8 -37 -12 -37
-8 1 22 58 69 108 89 62 26 75 28 86 17z m-1835 -97 c-3 -3 -11 5 -18 17 -13
21 -12 21 5 5 10 -10 16 -20 13 -22z m176 -184 c-3 -3 -11 0 -18 7 -9 10 -8
11 6 5 10 -3 15 -9 12 -12z m740 -527 c48 -31 102 -63 122 -71 19 -9 33 -17
30 -20 -20 -20 -273 155 -320 220 -13 19 -2 12 30 -21 29 -28 91 -77 138 -108z
m-370 66 c-2 -5 7 -19 20 -31 14 -13 25 -19 25 -14 1 5 8 -3 16 -18 8 -16 19
-28 24 -28 5 0 28 -18 52 -39 49 -46 31 -50 -21 -5 -96 82 -130 117 -128 134
1 10 5 16 9 14 5 -3 6 -9 3 -13z m229 -213 c-3 -4 -11 -5 -19 -1 -21 7 -19 12
4 10 11 0 18 -5 15 -9z m-484 -7158 c0 -5 -5 -10 -11 -10 -5 0 -7 5 -4 10 3 6
8 10 11 10 2 0 4 -4 4 -10z m905 -4164 c55 -9 127 -20 160 -25 42 -6 50 -9 26
-10 -33 -1 -34 -2 -16 -15 11 -8 23 -12 27 -9 5 2 11 -3 14 -11 3 -9 12 -16
20 -16 8 0 14 -7 14 -15 0 -8 4 -15 9 -15 15 0 22 -33 9 -42 -8 -6 2 -7 27 -3
90 14 205 89 205 133 0 12 4 23 8 26 15 9 -5 -107 -48 -274 -78 -308 -81 -364
-31 -539 27 -93 29 -106 16 -130 -7 -15 -21 -33 -29 -40 -39 -33 3 -36 67 -6
15 8 25 9 22 4 -4 -5 1 -9 9 -9 8 0 18 5 21 10 4 6 14 9 23 8 21 -4 62 57 62
92 0 42 -28 111 -62 155 -22 27 -24 34 -9 20 65 -56 121 -184 121 -275 0 -28
11 -81 23 -118 77 -218 56 -446 -74 -836 -170 -508 -312 -691 -604 -777 -69
-21 -101 -24 -235 -24 -137 0 -163 3 -225 24 -155 52 -295 160 -343 264 -57
122 -65 288 -22 472 34 149 125 457 199 676 38 113 72 232 76 264 19 148 73
244 185 329 34 25 66 46 72 46 6 0 9 103 6 293 -2 211 1 312 10 363 l13 71 77
-23 c43 -12 122 -29 177 -38z"/>
<path d="M18393 18815 c-31 -22 -47 -87 -33 -131 21 -64 78 -82 127 -40 25 21
28 31 28 81 0 50 -3 60 -28 81 -32 28 -63 31 -94 9z"/>
<path d="M14730 18875 l0 -55 58 0 c73 0 106 16 110 55 5 42 -19 55 -100 55
l-68 0 0 -55z"/>
<path d="M14730 18685 l0 -55 78 0 c92 0 115 12 110 55 -4 40 -37 55 -120 55
l-68 0 0 -55z"/>
<path d="M11150 18672 c-19 -16 -21 -22 -11 -40 25 -46 121 -16 121 38 0 17
-7 20 -44 20 -27 0 -52 -7 -66 -18z"/>
<path d="M12365 18806 c-34 -34 -41 -86 -19 -133 36 -74 116 -67 142 11 33
100 -56 189 -123 122z"/>
<path d="M12750 18672 c-19 -16 -21 -22 -11 -40 25 -46 121 -16 121 38 0 17
-7 20 -44 20 -27 0 -52 -7 -66 -18z"/>
<path d="M13443 18830 c-12 -5 -29 -23 -38 -39 l-16 -31 81 0 c44 0 80 4 80 9
0 16 -44 59 -65 64 -11 3 -30 2 -42 -3z"/>
<path d="M15204 18680 c-30 -12 -37 -26 -24 -50 24 -44 120 -12 120 40 0 17
-6 20 -37 19 -21 0 -48 -4 -59 -9z"/>
<path d="M16393 18815 c-12 -8 -26 -30 -33 -49 -28 -87 67 -152 137 -92 22 19
28 32 28 66 0 34 -6 47 -28 66 -32 27 -73 31 -104 9z"/>
<path d="M17110 18817 c-46 -23 -59 -109 -24 -164 19 -30 76 -40 109 -19 32
21 48 79 35 128 -17 60 -65 83 -120 55z"/>
<path d="M10680 18080 l0 -80 34 0 c51 0 81 29 81 80 0 51 -30 80 -81 80 l-34
0 0 -80z"/>
<path d="M11120 18115 c0 -43 1 -45 28 -45 33 0 52 16 52 45 0 29 -19 45 -52
45 -27 0 -28 -2 -28 -45z"/>
<path d="M11970 18080 l0 -80 34 0 c51 0 81 29 81 80 0 51 -30 80 -81 80 l-34
0 0 -80z"/>
<path d="M12540 18115 c0 -43 1 -45 28 -45 33 0 52 16 52 45 0 29 -19 45 -52
45 -27 0 -28 -2 -28 -45z"/>
<path d="M12953 18154 c-8 -20 8 -36 26 -25 15 10 8 41 -9 41 -6 0 -13 -7 -17
-16z"/>
<path d="M12934 18045 c-10 -24 4 -45 29 -45 35 0 40 11 15 37 -25 27 -36 29
-44 8z"/>
<path d="M13360 18115 c0 -43 1 -45 28 -45 33 0 52 16 52 45 0 29 -19 45 -52
45 -27 0 -28 -2 -28 -45z"/>
<path d="M13890 18080 l0 -80 34 0 c51 0 81 29 81 80 0 51 -30 80 -81 80 l-34
0 0 -80z"/>
<path d="M7935 17100 c-124 -26 -150 -63 -89 -121 l24 -23 80 27 c92 31 165
34 239 10 28 -9 54 -13 57 -10 13 13 -34 73 -76 99 -61 37 -124 42 -235 18z"/>
<path d="M7205 16814 c-102 -60 -150 -98 -186 -147 -40 -55 -61 -130 -48 -165
l11 -27 31 40 c78 97 132 141 239 193 58 28 108 59 112 68 17 45 -7 84 -52 84
-15 0 -63 -21 -107 -46z"/>
<path d="M8026 16775 c-21 -22 -20 -47 4 -95 21 -42 46 -60 79 -60 44 0 55 77
18 131 -26 39 -74 51 -101 24z"/>
<path d="M7377 16505 c-27 -26 -29 -53 -8 -99 30 -70 88 -76 119 -12 12 24 11
32 -10 74 -19 39 -28 48 -54 50 -19 2 -38 -3 -47 -13z"/>
<path d="M7905 16228 c-33 -12 -65 -36 -65 -50 0 -4 20 -8 44 -8 33 0 52 7 76
26 24 20 28 29 18 35 -17 11 -35 10 -73 -3z"/>
<path d="M8940 16785 c-7 -9 -10 -18 -7 -21 3 -3 10 4 17 15 13 25 8 27 -10 6z"/>
<path d="M6040 16088 c0 -9 5 -20 10 -23 13 -8 13 5 0 25 -8 13 -10 13 -10 -2z"/>
<path d="M6125 15959 c-4 -6 -5 -12 -2 -15 2 -3 7 2 10 11 7 17 1 20 -8 4z"/>
<path d="M6507 15499 c12 -12 25 -20 28 -17 3 3 -7 13 -22 23 l-28 17 22 -23z"/>
<path d="M8361 15410 c-42 -58 -87 -105 -66 -70 8 13 6 13 -8 1 -9 -7 -14 -18
-10 -24 3 -5 1 -7 -4 -4 -6 4 -26 -8 -45 -26 -20 -17 -58 -53 -86 -79 -64 -58
-55 -71 30 -48 31 9 52 29 113 108 77 98 142 202 127 202 -4 0 -27 -27 -51
-60z"/>
<path d="M9845 15330 c-342 -19 -674 -67 -992 -145 -103 -25 -194 -49 -202
-54 -10 -7 -11 -13 -2 -29 21 -39 13 -84 -24 -138 -47 -68 -40 -89 24 -80 25
4 114 9 196 13 l150 6 90 -32 c50 -18 207 -73 350 -122 490 -168 530 -188 680
-331 93 -87 147 -162 208 -284 65 -130 102 -243 182 -553 l70 -275 165 -32
c862 -170 1607 -650 2103 -1357 308 -438 492 -903 579 -1457 20 -128 22 -183
23 -473 0 -214 3 -326 10 -324 6 2 34 12 63 21 50 17 211 103 276 148 107 75
277 221 556 478 396 364 678 581 913 701 48 24 87 49 87 54 0 26 -103 423
-141 540 -263 826 -705 1551 -1319 2166 -807 808 -1834 1330 -2960 1503 -327
50 -772 73 -1085 56z"/>
<path d="M8420 15203 c-23 -27 -47 -46 -54 -45 -6 2 -8 0 -3 -4 4 -4 -11 -27
-34 -50 -27 -28 -40 -48 -36 -58 10 -25 31 -19 52 16 10 18 41 60 68 93 56 70
72 95 58 95 -5 0 -28 -21 -51 -47z"/>
<path d="M8492 15018 c-71 -89 -72 -91 -51 -106 11 -8 24 -10 29 -6 22 24 102
182 98 194 -2 5 -36 -31 -76 -82z"/>
<path d="M8230 14460 c-18 -12 -2 -12 25 0 13 6 15 9 5 9 -8 0 -22 -4 -30 -9z"/>
<path d="M7496 13475 c-9 -26 -7 -32 5 -12 6 10 9 21 6 23 -2 3 -7 -2 -11 -11z"/>
<path d="M7476 13423 c-6 -14 -5 -15 5 -6 7 7 10 15 7 18 -3 3 -9 -2 -12 -12z"/>
<path d="M5577 12814 c-364 -587 -612 -1241 -726 -1914 -83 -490 -98 -973 -45
-1484 14 -134 32 -268 38 -273 11 -11 62 72 105 172 104 240 242 469 412 680
110 137 323 348 450 447 247 192 559 356 840 442 l86 26 8 57 c5 32 9 245 10
473 1 228 5 481 10 563 4 81 5 147 3 147 -3 0 -17 -17 -31 -37 -62 -93 -237
-254 -370 -343 -242 -161 -433 -139 -657 77 -89 85 -102 102 -117 152 -9 31
-16 77 -15 102 3 42 0 48 -31 69 -47 33 -80 84 -79 124 1 18 15 71 33 117 27
73 142 490 136 495 -1 1 -28 -40 -60 -92z"/>
<path d="M10604 12776 c-39 -24 -107 -60 -150 -79 -99 -43 -674 -234 -757
-251 l-62 -13 2 -35 c4 -60 46 -172 69 -182 30 -13 62 -90 89 -216 11 -54 21
-80 42 -122 20 -41 22 -57 18 -115 -16 -181 -41 -355 -99 -670 -10 -52 25 61
39 131 9 37 27 150 41 250 14 99 34 224 46 276 17 80 19 111 12 195 -12 150
-9 231 10 260 9 13 37 34 61 45 25 12 43 25 40 30 -3 6 1 7 9 4 9 -3 16 -1 16
5 0 6 7 8 17 4 12 -5 14 -3 8 7 -6 10 -4 12 8 7 10 -4 17 -2 17 4 0 6 7 8 16
5 8 -3 12 -2 9 4 -6 9 10 14 43 13 6 -1 12 3 12 7 0 12 60 31 73 23 6 -4 7 -1
2 7 -6 10 -3 12 13 8 12 -4 20 -3 17 2 -2 4 20 17 51 29 60 23 78 26 54 11 -8
-5 -10 -10 -5 -10 6 0 17 5 25 10 8 5 11 10 5 10 -5 0 53 31 130 69 77 38 157
85 178 103 l38 33 -28 92 c-15 51 -30 93 -33 93 -3 0 -37 -20 -76 -44z"/>
<path d="M7140 12723 c-19 -38 -36 -71 -37 -75 -3 -5 21 -4 37 2 3 1 9 2 14 1
5 -1 6 6 2 15 -4 11 -2 15 7 11 9 -3 13 2 12 16 -1 12 3 29 9 37 10 13 9 13
-6 1 -10 -7 -18 -20 -18 -27 0 -8 -4 -14 -10 -14 -11 0 -4 21 22 68 10 17 14
32 10 32 -4 0 -23 -30 -42 -67z m-9 -60 c-8 -15 -10 -15 -11 -2 0 17 10 32 18
25 2 -3 -1 -13 -7 -23z"/>
<path d="M5630 12579 c-34 -11 -74 -38 -66 -46 6 -6 -52 -163 -70 -190 -24
-37 -17 -84 17 -126 17 -20 39 -42 49 -47 16 -9 20 -2 35 64 10 46 22 76 31
80 26 10 181 7 255 -5 64 -11 69 -14 63 -33 -5 -16 -1 -14 18 9 31 38 160 236
156 240 -2 1 -55 15 -118 30 -127 31 -308 42 -370 24z"/>
<path d="M6829 12253 c-13 -16 -12 -17 4 -4 16 13 21 21 13 21 -2 0 -10 -8
-17 -17z"/>
<path d="M6779 12183 c-13 -16 -12 -17 4 -4 16 13 21 21 13 21 -2 0 -10 -8
-17 -17z"/>
<path d="M6658 12128 c-10 -10 -18 -22 -18 -28 0 -5 -7 -10 -15 -10 -8 0 -15
-4 -15 -9 0 -5 -18 -22 -40 -38 -22 -15 -40 -34 -40 -40 0 -7 -5 -13 -11 -13
-18 0 -89 -62 -82 -73 3 -6 1 -7 -5 -3 -7 4 -12 2 -12 -4 0 -6 -4 -9 -8 -6 -5
3 -21 -8 -37 -24 -27 -29 -27 -29 -4 -23 13 3 21 2 16 -2 -4 -5 -17 -10 -28
-12 -28 -4 -52 -30 -45 -48 6 -17 33 -20 38 -4 3 9 24 16 56 18 7 1 10 6 7 11
-3 6 -2 10 4 10 15 0 66 51 63 62 -2 6 4 8 12 5 22 -9 98 67 82 83 -8 8 -7 10
5 5 19 -7 98 64 91 83 -2 6 4 12 13 12 12 0 15 6 10 20 -4 14 -2 20 9 20 9 0
13 6 10 14 -7 19 -35 16 -56 -6z"/>
<path d="M6731 3773 c-1 -34 -57 -202 -93 -279 -18 -38 -32 -71 -33 -74 -15
-70 -224 -470 -322 -616 -91 -135 -202 -250 -298 -308 -33 -20 -56 -36 -51
-36 5 0 42 20 82 45 161 100 313 313 519 724 124 248 219 510 202 553 -3 7 -6
3 -6 -9z"/>
<path d="M5608 3733 c7 -3 16 -2 19 1 4 3 -2 6 -13 5 -11 0 -14 -3 -6 -6z"/>
<path d="M6022 3637 c-18 -17 -38 -23 -95 -27 l-72 -5 63 -11 c63 -10 63 -10
100 22 20 18 35 35 31 38 -3 3 -15 -5 -27 -17z"/>
<path d="M5850 3460 c57 -14 127 -22 110 -11 -8 5 -44 11 -80 15 -48 4 -56 3
-30 -4z"/>
<path d="M5485 3319 c-4 -6 -4 -13 0 -17 3 -3 10 -1 14 6 11 18 218 -4 325
-34 27 -8 57 -14 65 -14 13 0 14 2 0 15 -10 10 -70 21 -184 35 -197 23 -212
24 -220 9z"/>
<path d="M5436 3151 c-7 -11 83 -95 92 -86 4 4 -1 11 -11 16 -25 14 -21 28 10
40 36 14 188 -7 209 -28 12 -13 20 -13 40 -4 14 6 31 8 37 5 9 -5 9 -4 0 6 -7
7 -75 21 -160 31 -81 10 -162 21 -180 24 -17 3 -34 1 -37 -4z"/>
<path d="M6282 2935 c-9 -19 -9 -25 1 -25 6 0 13 11 13 25 2 31 0 31 -14 0z"/>
<path d="M7143 2975 c-33 -27 -69 -85 -51 -85 6 0 7 -12 3 -30 -8 -34 7 -60
35 -60 12 0 21 16 33 58 20 71 30 142 20 142 -5 0 -22 -12 -40 -25z"/>
<path d="M7648 2683 c7 -3 16 -2 19 1 4 3 -2 6 -13 5 -11 0 -14 -3 -6 -6z"/>
<path d="M7368 2383 c6 -2 18 -2 25 0 6 3 1 5 -13 5 -14 0 -19 -2 -12 -5z"/>
<path d="M7465 2365 c81 -19 149 -19 165 0 10 12 7 13 -18 5 -17 -4 -32 -7
-34 -5 -2 1 -41 5 -88 8 l-85 6 60 -14z"/>
<path d="M7085 2270 c3 -5 12 -7 20 -3 21 7 19 13 -6 13 -11 0 -18 -4 -14 -10z"/>
<path d="M7163 2263 c9 -2 23 -2 30 0 6 3 -1 5 -18 5 -16 0 -22 -2 -12 -5z"/>
<path d="M7228 2253 c6 -2 18 -2 25 0 6 3 1 5 -13 5 -14 0 -19 -2 -12 -5z"/>
<path d="M7308 2243 c7 -3 16 -2 19 1 4 3 -2 6 -13 5 -11 0 -14 -3 -6 -6z"/>
<path d="M7368 2233 c6 -2 18 -2 25 0 6 3 1 5 -13 5 -14 0 -19 -2 -12 -5z"/>
<path d="M7485 2210 c44 -11 89 -19 100 -19 35 1 -61 27 -122 33 -57 6 -57 5
22 -14z"/>
<path d="M7049 2091 c-1 -19 -1 -81 1 -88 1 -5 7 8 14 27 l13 35 79 -2 c71 -1
301 -40 347 -58 23 -9 22 11 -1 24 -10 5 -92 21 -182 35 -246 37 -270 39 -271
27z"/>
<path d="M7014 1908 c-3 -5 -4 -10 -3 -11 2 -2 23 -19 47 -40 23 -20 48 -37
55 -37 7 1 5 6 -5 14 -10 7 -18 16 -18 20 0 13 129 5 220 -14 88 -18 140 -18
140 0 0 11 -21 15 -220 45 -96 14 -183 27 -192 29 -10 2 -21 0 -24 -6z"/>
<path d="M7680 1239 c-39 -31 -157 -89 -183 -89 -13 0 -27 -4 -32 -9 -6 -5
-26 -14 -45 -19 -20 -6 -26 -11 -15 -11 56 -2 276 100 301 140 8 14 2 11 -26
-12z"/>
<path d="M7358 1103 c7 -3 16 -2 19 1 4 3 -2 6 -13 5 -11 0 -14 -3 -6 -6z"/>
</g>
</svg>
