<?xml version="1.0" encoding="UTF-8" standalone="no"?>
<!DOCTYPE svg PUBLIC "-//W3C//DTD SVG 1.1//EN" "http://www.w3.org/Graphics/SVG/1.1/DTD/svg11.dtd">
<svg xmlns="http://www.w3.org/2000/svg" version="1.1" viewBox="0.00 0.00 500.00 500.00">
<g stroke-width="2.00" fill="none" stroke-linecap="butt">
<path stroke="#f79992" vector-effect="non-scaling-stroke" d="
  M 247.79 157.15
  C 240.20 148.02 224.80 149.67 219.80 160.57
  C 215.19 170.63 220.06 176.81 227.50 184.41
  Q 237.35 194.48 247.31 204.46
  A 0.76 0.76 0.0 0 0 248.38 204.47
  Q 260.01 193.14 271.91 181.77
  Q 276.52 177.36 277.82 174.22
  C 285.01 156.81 261.90 142.79 249.30 157.17
  A 1.00 0.99 45.5 0 1 247.79 157.15"
/>
<path stroke="#fabeb3" vector-effect="non-scaling-stroke" d="
  M 210.71 209.76
  C 198.06 200.32 194.92 184.26 194.95 169.37
  Q 194.97 165.10 194.48 163.69
  C 193.13 159.75 188.30 157.73 184.87 160.55
  C 182.06 162.88 181.70 168.61 181.75 172.10
  Q 182.30 211.02 205.84 241.07
  C 212.32 249.33 215.49 255.49 216.36 265.39
  Q 216.41 265.96 216.98 265.97
  C 221.74 266.05 231.19 267.02 237.21 265.64
  A 0.93 0.93 0.0 0 0 237.88 265.02
  C 242.21 251.19 240.65 239.13 233.89 226.63
  Q 226.14 212.32 218.67 197.87
  Q 216.99 194.63 215.32 193.57
  C 212.12 191.53 207.98 193.21 206.66 196.69
  C 205.33 200.19 209.51 206.26 211.12 209.41
  Q 211.67 210.47 210.71 209.76"
/>
<path stroke="#fabeb3" vector-effect="non-scaling-stroke" d="
  M 288.94 209.45
  C 291.02 205.02 297.16 197.36 290.91 193.58
  C 286.63 190.99 283.48 193.85 281.47 197.77
  Q 274.40 211.56 266.98 225.20
  C 259.67 238.62 257.50 250.48 262.34 265.40
  A 0.78 0.78 0.0 0 0 263.07 265.94
  L 282.86 266.03
  Q 283.42 266.03 283.57 265.50
  C 284.56 261.98 284.67 258.29 285.80 255.10
  C 288.51 247.49 293.10 242.69 297.41 236.67
  Q 318.44 207.23 318.23 170.93
  C 318.22 168.87 317.95 166.28 317.52 164.53
  C 315.48 156.28 305.15 158.65 305.10 165.73
  C 305.00 182.60 303.27 199.52 289.31 209.75
  Q 288.53 210.33 288.94 209.45"
/>
<path stroke="#8daac6" vector-effect="non-scaling-stroke" d="
  M 125.69 295.81
  Q 130.02 298.14 136.24 298.96
  Q 140.18 299.49 140.54 303.88
  Q 140.58 304.36 140.32 304.75
  C 137.09 309.65 128.87 307.92 125.42 304.79
  A 2.52 2.51 -52.1 0 0 121.63 305.27
  C 116.98 312.30 142.49 319.03 146.09 305.59
  C 148.95 294.87 137.63 293.64 130.59 291.70
  C 125.60 290.33 126.94 284.41 131.57 283.84
  Q 137.07 283.15 141.70 286.51
  A 1.51 1.50 -27.3 0 0 142.62 286.80
  C 145.40 286.78 146.58 283.24 144.58 281.66
  C 139.43 277.59 131.14 276.79 125.73 280.31
  C 120.71 283.57 119.79 292.64 125.69 295.81"
/>
<path stroke="#8daac6" vector-effect="non-scaling-stroke" d="
  M 229.52 298.27
  Q 234.27 304.77 239.40 311.25
  C 240.68 312.86 242.63 313.67 244.23 312.15
  C 246.40 310.08 244.72 308.05 243.06 305.86
  Q 238.51 299.83 233.92 293.73
  Q 233.62 293.32 233.99 292.97
  Q 239.29 287.90 244.43 282.69
  C 246.90 280.19 243.24 276.51 239.82 279.77
  Q 232.19 287.02 224.96 294.46
  A 0.41 0.41 0.0 0 1 224.25 294.17
  Q 224.26 288.04 224.23 281.70
  C 224.21 277.24 218.24 277.33 218.24 282.67
  Q 218.25 295.82 218.26 308.98
  C 218.26 312.09 220.38 314.16 223.34 312.18
  A 2.05 2.04 -17.0 0 0 224.25 310.48
  L 224.25 302.77
  A 1.00 0.96 -24.0 0 1 224.53 302.09
  L 228.44 298.19
  A 0.71 0.71 0.0 0 1 229.52 298.27"
/>
<path stroke="#8daac6" vector-effect="non-scaling-stroke" d="
  M 161.97 298.30
  L 173.69 298.15
  A 0.82 0.81 22.6 0 0 174.21 297.94
  Q 176.90 295.52 174.35 292.88
  A 0.91 0.89 68.1 0 0 173.69 292.59
  L 162.23 292.46
  Q 161.50 292.45 161.50 291.72
  L 161.50 284.70
  Q 161.50 284.15 162.05 284.13
  Q 168.65 283.92 175.25 283.81
  C 179.01 283.75 178.70 278.85 174.99 278.74
  Q 166.68 278.48 158.75 278.47
  A 3.24 3.24 0.0 0 0 155.50 281.71
  L 155.50 310.00
  A 3.00 3.00 0.0 0 0 158.50 313.00
  L 175.24 313.00
  A 2.46 2.43 18.0 0 0 177.21 312.01
  C 179.07 309.51 177.15 307.51 174.48 307.38
  Q 168.28 307.07 161.97 307.39
  Q 161.50 307.41 161.50 306.94
  L 161.50 298.78
  Q 161.50 298.30 161.97 298.30"
/>
<path stroke="#8daac6" vector-effect="non-scaling-stroke" d="
  M 189.52 312.98
  L 206.88 313.01
  A 2.44 2.43 5.8 0 0 209.27 311.07
  Q 209.98 307.67 206.15 307.51
  Q 199.99 307.24 193.66 307.21
  Q 193.00 307.21 193.00 306.55
  L 193.00 298.81
  Q 193.00 298.26 193.55 298.26
  Q 198.87 298.27 204.18 298.11
  C 207.32 298.02 208.19 294.70 205.63 292.89
  Q 205.16 292.56 204.59 292.56
  L 193.61 292.47
  Q 193.00 292.47 193.00 291.86
  L 193.00 284.78
  Q 193.00 284.20 193.58 284.18
  Q 199.95 284.01 206.31 283.96
  C 210.45 283.93 210.34 278.82 206.49 278.71
  Q 198.18 278.48 190.24 278.48
  A 3.24 3.23 -89.9 0 0 187.00 281.72
  L 187.00 310.46
  A 2.53 2.52 0.1 0 0 189.52 312.98"
/>
<path stroke="#8daac6" vector-effect="non-scaling-stroke" d="
  M 260.27 298.50
  L 274.98 298.50
  Q 275.54 298.50 275.57 299.06
  Q 275.84 303.95 275.74 308.86
  C 275.63 314.12 281.55 314.19 281.61 309.75
  Q 281.77 296.10 281.73 282.45
  C 281.72 276.93 275.28 277.33 275.76 283.01
  Q 275.95 285.19 275.66 292.37
  Q 275.64 292.89 275.12 292.89
  L 260.28 292.85
  Q 259.76 292.85 259.76 292.33
  Q 259.74 287.04 259.73 281.77
  C 259.72 277.50 253.79 277.41 253.77 282.07
  Q 253.72 295.66 253.76 309.24
  C 253.78 314.19 259.82 314.32 259.76 308.64
  Q 259.70 303.81 259.77 298.99
  Q 259.78 298.50 260.27 298.50"
/>
<path stroke="#8daac6" vector-effect="non-scaling-stroke" d="
  M 298.99 298.28
  Q 304.13 298.22 309.24 298.19
  C 313.78 298.17 313.56 292.61 309.68 292.55
  Q 304.36 292.48 299.01 292.50
  Q 298.50 292.50 298.50 291.99
  L 298.50 284.82
  Q 298.50 284.13 299.19 284.12
  L 312.53 283.96
  A 2.24 2.23 -85.0 0 0 314.70 282.14
  C 315.29 279.03 313.02 278.52 310.47 278.50
  Q 302.70 278.47 295.46 278.51
  A 2.98 2.98 0.0 0 0 292.50 281.49
  L 292.50 309.78
  A 3.20 3.20 0.0 0 0 295.66 312.98
  Q 303.35 313.06 311.27 312.97
  C 315.00 312.92 316.59 308.65 312.81 307.65
  C 309.01 306.65 303.17 307.21 299.11 307.33
  Q 298.50 307.35 298.50 306.74
  L 298.50 298.77
  Q 298.50 298.28 298.99 298.28"
/>
<path stroke="#8daac6" vector-effect="non-scaling-stroke" d="
  M 326.36 312.78
  Q 334.53 313.43 343.32 312.86
  C 347.02 312.61 346.37 307.15 342.97 307.23
  Q 336.91 307.36 330.58 307.20
  Q 330.03 307.19 330.03 306.64
  Q 329.94 294.44 330.01 282.25
  C 330.04 277.26 324.01 277.77 324.01 281.50
  Q 323.98 295.93 324.01 310.24
  A 2.56 2.55 2.3 0 0 326.36 312.78"
/>
<path stroke="#8daac6" vector-effect="non-scaling-stroke" d="
  M 361.11 300.72
  C 365.55 300.91 371.12 301.27 374.70 298.62
  C 381.30 293.73 379.83 282.99 372.91 279.55
  C 369.11 277.66 362.52 278.55 358.18 278.48
  A 3.12 3.12 0.0 0 0 355.01 281.59
  Q 354.97 295.27 355.02 309.27
  C 355.04 313.75 360.22 314.22 360.32 310.25
  Q 360.43 305.74 360.56 301.23
  Q 360.58 300.69 361.11 300.72"
/>
<path stroke="#9db6d4" vector-effect="non-scaling-stroke" d="
  M 153.43 338.97
  A 0.35 0.35 0.0 0 1 152.76 339.01
  L 150.63 333.52
  A 1.20 1.20 0.0 0 0 148.40 333.50
  L 146.16 338.99
  A 0.37 0.36 -42.2 0 1 145.47 338.96
  Q 144.29 335.02 142.83 330.99
  Q 142.56 330.23 142.09 330.11
  Q 141.53 329.95 140.74 330.40
  Q 140.12 330.76 140.35 331.43
  L 144.30 343.17
  A 1.20 1.20 0.0 0 0 146.53 343.28
  L 149.14 337.44
  A 0.34 0.34 0.0 0 1 149.76 337.44
  L 152.32 343.26
  A 1.21 1.21 0.0 0 0 154.57 343.15
  L 158.46 331.51
  A 1.15 1.15 0.0 0 0 157.28 330.00
  Q 156.39 330.06 156.15 330.66
  Q 154.49 334.82 153.43 338.97"
/>
<path stroke="#9db6d4" vector-effect="non-scaling-stroke" d="
  M 167.25 338.01
  Q 169.21 337.99 171.14 337.97
  Q 171.82 337.96 172.14 337.66
  Q 172.68 337.15 172.32 336.30
  A 0.90 0.90 0.0 0 0 171.49 335.75
  L 167.50 335.75
  Q 166.75 335.75 166.75 335.00
  L 166.75 332.79
  Q 166.75 332.24 167.30 332.24
  Q 169.61 332.26 171.93 332.25
  Q 172.65 332.24 172.98 331.94
  Q 173.50 331.44 173.16 330.52
  A 0.81 0.80 -10.7 0 0 172.41 330.01
  L 165.25 330.00
  A 1.00 0.99 -89.7 0 0 164.25 331.00
  L 164.25 342.77
  A 1.22 1.22 0.0 0 0 165.46 343.99
  Q 168.57 344.03 171.80 343.98
  Q 172.59 343.96 172.96 343.61
  Q 173.55 343.04 173.16 342.18
  Q 172.97 341.75 172.50 341.75
  L 167.50 341.75
  Q 166.75 341.75 166.75 341.00
  L 166.75 338.51
  Q 166.75 338.01 167.25 338.01"
/>
<path stroke="#9db6d4" vector-effect="non-scaling-stroke" d="
  M 190.16 332.55
  C 185.29 338.99 192.45 347.18 199.28 343.12
  Q 199.94 342.73 199.52 342.09
  L 199.07 341.42
  A 0.69 0.69 0.0 0 0 198.21 341.16
  C 189.70 345.00 187.81 329.80 198.69 332.84
  A 0.61 0.61 0.0 0 0 199.45 332.39
  Q 199.86 330.61 198.02 330.22
  Q 192.77 329.10 190.16 332.55"
/>
<path stroke="#9db6d4" vector-effect="non-scaling-stroke" d="
  M 208.64 340.77
  L 213.26 340.83
  Q 213.73 340.83 213.93 341.25
  Q 214.47 342.36 215.18 343.38
  Q 216.03 344.61 216.80 343.54
  A 1.25 1.24 -38.8 0 0 216.94 342.33
  L 211.95 330.55
  A 1.17 1.17 0.0 0 0 209.80 330.56
  L 204.74 342.75
  A 1.02 1.02 0.0 0 0 206.60 343.59
  L 207.72 341.34
  A 1.01 1.00 -76.6 0 1 208.64 340.77"
/>
<path stroke="#9db6d4" vector-effect="non-scaling-stroke" d="
  M 225.79 338.95
  L 230.33 339.12
  A 0.57 0.57 0.0 0 1 230.87 339.79
  Q 230.22 343.45 233.46 343.87
  A 0.63 0.63 0.0 0 0 234.13 343.04
  L 232.23 337.81
  Q 232.06 337.35 232.41 337.01
  Q 234.11 335.36 233.44 333.02
  C 232.31 329.00 227.04 329.97 223.94 330.00
  A 1.20 1.20 0.0 0 0 222.75 331.20
  L 222.75 343.00
  Q 222.75 343.75 223.50 343.75
  L 224.63 343.75
  A 0.63 0.62 90.0 0 0 225.25 343.12
  L 225.25 339.47
  Q 225.25 338.93 225.79 338.95"
/>
<path stroke="#9db6d4" vector-effect="non-scaling-stroke" d="
  M 243.50 338.00
  L 247.72 338.00
  A 0.97 0.97 0.0 0 0 248.68 337.18
  Q 248.91 335.77 247.51 335.81
  Q 245.55 335.86 243.57 335.68
  Q 243.00 335.63 243.00 335.05
  L 243.00 332.94
  Q 243.00 332.26 243.68 332.26
  Q 245.92 332.24 248.17 332.25
  Q 248.90 332.25 249.23 331.94
  Q 249.75 331.44 249.41 330.53
  A 0.81 0.80 79.3 0 0 248.66 330.01
  L 241.50 330.00
  A 1.00 0.99 -89.7 0 0 240.50 331.00
  L 240.50 342.75
  A 1.25 1.25 0.0 0 0 241.75 344.00
  L 248.50 344.00
  A 1.08 1.08 0.0 0 0 249.37 342.28
  Q 248.70 341.36 247.22 341.56
  Q 245.42 341.80 243.50 341.75
  A 0.51 0.51 0.0 0 1 243.00 341.24
  L 243.00 338.50
  Q 243.00 338.00 243.50 338.00"
/>
<path stroke="#9db6d4" vector-effect="non-scaling-stroke" d="
  M 268.43 338.13
  L 272.66 338.07
  A 1.03 1.03 0.0 0 0 272.93 336.05
  Q 270.77 335.44 268.57 335.92
  Q 268.00 336.05 268.00 335.46
  L 268.00 332.75
  Q 268.00 332.25 268.50 332.25
  L 273.46 332.25
  A 0.77 0.77 0.0 0 0 274.23 331.48
  L 274.23 330.67
  A 0.68 0.68 0.0 0 0 273.55 329.99
  L 266.45 330.03
  A 0.95 0.95 0.0 0 0 265.50 330.98
  L 265.50 343.17
  Q 265.50 343.83 266.17 343.83
  L 267.33 343.83
  A 0.67 0.66 0.0 0 0 268.00 343.17
  L 268.00 338.57
  Q 268.00 338.14 268.43 338.13"
/>
<path stroke="#9db6d4" vector-effect="non-scaling-stroke" d="
  M 286.7802 344.1498
  A 7.14 6.75 90.4 0 0 293.5798 337.0571
  A 7.14 6.75 90.4 0 0 286.8798 329.8702
  A 7.14 6.75 90.4 0 0 280.0802 336.9629
  A 7.14 6.75 90.4 0 0 286.7802 344.1498"
/>
<path stroke="#9db6d4" vector-effect="non-scaling-stroke" d="
  M 303.01 338.98
  L 307.24 339.04
  A 0.74 0.73 88.7 0 1 307.96 339.74
  C 308.09 341.81 308.61 344.85 311.16 343.61
  Q 311.54 343.43 311.39 343.04
  L 309.54 337.99
  Q 309.33 337.41 309.75 336.96
  C 312.09 334.45 310.58 330.26 307.00 330.10
  Q 303.98 329.96 301.19 330.00
  A 1.21 1.21 0.0 0 0 300.00 331.21
  L 300.00 343.15
  Q 300.00 343.80 300.65 343.83
  L 301.79 343.89
  A 0.69 0.68 -88.8 0 0 302.50 343.20
  L 302.50 339.49
  Q 302.50 338.97 303.01 338.98"
/>
<path stroke="#9db6d4" vector-effect="non-scaling-stroke" d="
  M 322.02 334.86
  Q 320.47 332.85 319.04 330.76
  Q 318.66 330.20 318.20 330.06
  Q 317.16 329.75 316.70 330.88
  A 1.05 1.04 38.0 0 0 316.83 331.91
  L 320.69 337.08
  Q 321.00 337.49 321.00 338.01
  L 321.00 343.06
  Q 321.00 343.64 321.56 343.76
  L 322.50 343.98
  A 0.79 0.79 0.0 0 0 323.46 343.22
  L 323.52 338.35
  Q 323.53 337.80 323.84 337.35
  Q 325.54 334.91 327.29 332.53
  Q 328.04 331.52 327.65 330.66
  A 1.12 1.11 -39.9 0 0 325.71 330.49
  L 322.76 334.83
  Q 322.41 335.36 322.02 334.86"
/>
<path stroke="#9db6d4" vector-effect="non-scaling-stroke" d="
  M 339.7052 344.1489
  A 7.15 6.76 91.0 0 0 346.5890 337.1180
  A 7.15 6.76 91.0 0 0 339.9548 329.8511
  A 7.15 6.76 91.0 0 0 333.0710 336.8820
  A 7.15 6.76 91.0 0 0 339.7052 344.1489"
/>
<path stroke="#9db6d4" vector-effect="non-scaling-stroke" d="
  M 355.44 343.06
  C 365.16 348.09 364.01 335.55 364.00 330.72
  Q 364.00 330.06 363.34 330.03
  L 362.55 329.99
  Q 361.94 329.96 361.89 330.58
  Q 361.61 334.20 361.73 337.84
  C 361.90 343.06 355.59 342.21 355.54 339.19
  Q 355.48 335.04 355.50 330.83
  A 0.71 0.70 -1.2 0 0 354.75 330.12
  L 353.73 330.16
  Q 353.08 330.19 353.06 330.85
  C 352.92 334.93 352.12 341.35 355.44 343.06"
/>
<path stroke="#8daac6" vector-effect="non-scaling-stroke" d="
  M 360.74 284.51
  L 360.68 294.65
  A 0.35 0.35 0.0 0 0 361.03 295.00
  L 368.40 295.04
  A 5.21 4.56 -89.7 0 0 372.99 289.85
  L 372.99 289.43
  A 5.21 4.56 -89.7 0 0 368.46 284.20
  L 361.09 284.16
  A 0.35 0.35 0.0 0 0 360.74 284.51"
/>
<path stroke="#9db6d4" vector-effect="non-scaling-stroke" d="
  M 212.12 338.44
  Q 212.76 338.39 212.50 337.80
  L 211.17 334.76
  A 0.42 0.41 43.9 0 0 210.40 334.77
  L 209.12 338.12
  A 0.41 0.40 -82.2 0 0 209.53 338.67
  L 212.12 338.44"
/>
<path stroke="#9db6d4" vector-effect="non-scaling-stroke" d="
  M 225.25 332.73
  L 225.25 336.31
  A 0.47 0.47 0.0 0 0 225.72 336.77
  L 229.12 336.77
  A 1.96 1.89 89.9 0 0 231.01 334.80
  L 231.01 334.20
  A 1.96 1.89 89.9 0 0 229.12 332.25
  L 225.72 332.25
  A 0.47 0.47 0.0 0 0 225.25 332.73"
/>
<path stroke="#9db6d4" vector-effect="non-scaling-stroke" d="
  M 286.8500 341.7300
  A 4.72 4.13 90.0 0 0 290.9800 337.0100
  A 4.72 4.13 90.0 0 0 286.8500 332.2900
  A 4.72 4.13 90.0 0 0 282.7200 337.0100
  A 4.72 4.13 90.0 0 0 286.8500 341.7300"
/>
<path stroke="#9db6d4" vector-effect="non-scaling-stroke" d="
  M 302.50 332.73
  L 302.50 336.31
  A 0.47 0.47 0.0 0 0 302.97 336.77
  L 306.37 336.77
  A 1.96 1.89 89.9 0 0 308.26 334.80
  L 308.26 334.20
  A 1.96 1.89 89.9 0 0 306.37 332.25
  L 302.97 332.25
  A 0.47 0.47 0.0 0 0 302.50 332.73"
/>
<path stroke="#9db6d4" vector-effect="non-scaling-stroke" d="
  M 339.8975 341.6996
  A 4.71 4.13 89.3 0 0 343.9697 336.9395
  A 4.71 4.13 89.3 0 0 339.7825 332.2804
  A 4.71 4.13 89.3 0 0 335.7103 337.0405
  A 4.71 4.13 89.3 0 0 339.8975 341.6996"
/>
</g>
<path fill="#ffffff" d="
  M 0.00 0.00
  L 500.00 0.00
  L 500.00 500.00
  L 0.00 500.00
  L 0.00 0.00
  Z
  M 247.79 157.15
  C 240.20 148.02 224.80 149.67 219.80 160.57
  C 215.19 170.63 220.06 176.81 227.50 184.41
  Q 237.35 194.48 247.31 204.46
  A 0.76 0.76 0.0 0 0 248.38 204.47
  Q 260.01 193.14 271.91 181.77
  Q 276.52 177.36 277.82 174.22
  C 285.01 156.81 261.90 142.79 249.30 157.17
  A 1.00 0.99 45.5 0 1 247.79 157.15
  Z
  M 210.71 209.76
  C 198.06 200.32 194.92 184.26 194.95 169.37
  Q 194.97 165.10 194.48 163.69
  C 193.13 159.75 188.30 157.73 184.87 160.55
  C 182.06 162.88 181.70 168.61 181.75 172.10
  Q 182.30 211.02 205.84 241.07
  C 212.32 249.33 215.49 255.49 216.36 265.39
  Q 216.41 265.96 216.98 265.97
  C 221.74 266.05 231.19 267.02 237.21 265.64
  A 0.93 0.93 0.0 0 0 237.88 265.02
  C 242.21 251.19 240.65 239.13 233.89 226.63
  Q 226.14 212.32 218.67 197.87
  Q 216.99 194.63 215.32 193.57
  C 212.12 191.53 207.98 193.21 206.66 196.69
  C 205.33 200.19 209.51 206.26 211.12 209.41
  Q 211.67 210.47 210.71 209.76
  Z
  M 288.94 209.45
  C 291.02 205.02 297.16 197.36 290.91 193.58
  C 286.63 190.99 283.48 193.85 281.47 197.77
  Q 274.40 211.56 266.98 225.20
  C 259.67 238.62 257.50 250.48 262.34 265.40
  A 0.78 0.78 0.0 0 0 263.07 265.94
  L 282.86 266.03
  Q 283.42 266.03 283.57 265.50
  C 284.56 261.98 284.67 258.29 285.80 255.10
  C 288.51 247.49 293.10 242.69 297.41 236.67
  Q 318.44 207.23 318.23 170.93
  C 318.22 168.87 317.95 166.28 317.52 164.53
  C 315.48 156.28 305.15 158.65 305.10 165.73
  C 305.00 182.60 303.27 199.52 289.31 209.75
  Q 288.53 210.33 288.94 209.45
  Z
  M 125.69 295.81
  Q 130.02 298.14 136.24 298.96
  Q 140.18 299.49 140.54 303.88
  Q 140.58 304.36 140.32 304.75
  C 137.09 309.65 128.87 307.92 125.42 304.79
  A 2.52 2.51 -52.1 0 0 121.63 305.27
  C 116.98 312.30 142.49 319.03 146.09 305.59
  C 148.95 294.87 137.63 293.64 130.59 291.70
  C 125.60 290.33 126.94 284.41 131.57 283.84
  Q 137.07 283.15 141.70 286.51
  A 1.51 1.50 -27.3 0 0 142.62 286.80
  C 145.40 286.78 146.58 283.24 144.58 281.66
  C 139.43 277.59 131.14 276.79 125.73 280.31
  C 120.71 283.57 119.79 292.64 125.69 295.81
  Z
  M 229.52 298.27
  Q 234.27 304.77 239.40 311.25
  C 240.68 312.86 242.63 313.67 244.23 312.15
  C 246.40 310.08 244.72 308.05 243.06 305.86
  Q 238.51 299.83 233.92 293.73
  Q 233.62 293.32 233.99 292.97
  Q 239.29 287.90 244.43 282.69
  C 246.90 280.19 243.24 276.51 239.82 279.77
  Q 232.19 287.02 224.96 294.46
  A 0.41 0.41 0.0 0 1 224.25 294.17
  Q 224.26 288.04 224.23 281.70
  C 224.21 277.24 218.24 277.33 218.24 282.67
  Q 218.25 295.82 218.26 308.98
  C 218.26 312.09 220.38 314.16 223.34 312.18
  A 2.05 2.04 -17.0 0 0 224.25 310.48
  L 224.25 302.77
  A 1.00 0.96 -24.0 0 1 224.53 302.09
  L 228.44 298.19
  A 0.71 0.71 0.0 0 1 229.52 298.27
  Z
  M 161.97 298.30
  L 173.69 298.15
  A 0.82 0.81 22.6 0 0 174.21 297.94
  Q 176.90 295.52 174.35 292.88
  A 0.91 0.89 68.1 0 0 173.69 292.59
  L 162.23 292.46
  Q 161.50 292.45 161.50 291.72
  L 161.50 284.70
  Q 161.50 284.15 162.05 284.13
  Q 168.65 283.92 175.25 283.81
  C 179.01 283.75 178.70 278.85 174.99 278.74
  Q 166.68 278.48 158.75 278.47
  A 3.24 3.24 0.0 0 0 155.50 281.71
  L 155.50 310.00
  A 3.00 3.00 0.0 0 0 158.50 313.00
  L 175.24 313.00
  A 2.46 2.43 18.0 0 0 177.21 312.01
  C 179.07 309.51 177.15 307.51 174.48 307.38
  Q 168.28 307.07 161.97 307.39
  Q 161.50 307.41 161.50 306.94
  L 161.50 298.78
  Q 161.50 298.30 161.97 298.30
  Z
  M 189.52 312.98
  L 206.88 313.01
  A 2.44 2.43 5.8 0 0 209.27 311.07
  Q 209.98 307.67 206.15 307.51
  Q 199.99 307.24 193.66 307.21
  Q 193.00 307.21 193.00 306.55
  L 193.00 298.81
  Q 193.00 298.26 193.55 298.26
  Q 198.87 298.27 204.18 298.11
  C 207.32 298.02 208.19 294.70 205.63 292.89
  Q 205.16 292.56 204.59 292.56
  L 193.61 292.47
  Q 193.00 292.47 193.00 291.86
  L 193.00 284.78
  Q 193.00 284.20 193.58 284.18
  Q 199.95 284.01 206.31 283.96
  C 210.45 283.93 210.34 278.82 206.49 278.71
  Q 198.18 278.48 190.24 278.48
  A 3.24 3.23 -89.9 0 0 187.00 281.72
  L 187.00 310.46
  A 2.53 2.52 0.1 0 0 189.52 312.98
  Z
  M 260.27 298.50
  L 274.98 298.50
  Q 275.54 298.50 275.57 299.06
  Q 275.84 303.95 275.74 308.86
  C 275.63 314.12 281.55 314.19 281.61 309.75
  Q 281.77 296.10 281.73 282.45
  C 281.72 276.93 275.28 277.33 275.76 283.01
  Q 275.95 285.19 275.66 292.37
  Q 275.64 292.89 275.12 292.89
  L 260.28 292.85
  Q 259.76 292.85 259.76 292.33
  Q 259.74 287.04 259.73 281.77
  C 259.72 277.50 253.79 277.41 253.77 282.07
  Q 253.72 295.66 253.76 309.24
  C 253.78 314.19 259.82 314.32 259.76 308.64
  Q 259.70 303.81 259.77 298.99
  Q 259.78 298.50 260.27 298.50
  Z
  M 298.99 298.28
  Q 304.13 298.22 309.24 298.19
  C 313.78 298.17 313.56 292.61 309.68 292.55
  Q 304.36 292.48 299.01 292.50
  Q 298.50 292.50 298.50 291.99
  L 298.50 284.82
  Q 298.50 284.13 299.19 284.12
  L 312.53 283.96
  A 2.24 2.23 -85.0 0 0 314.70 282.14
  C 315.29 279.03 313.02 278.52 310.47 278.50
  Q 302.70 278.47 295.46 278.51
  A 2.98 2.98 0.0 0 0 292.50 281.49
  L 292.50 309.78
  A 3.20 3.20 0.0 0 0 295.66 312.98
  Q 303.35 313.06 311.27 312.97
  C 315.00 312.92 316.59 308.65 312.81 307.65
  C 309.01 306.65 303.17 307.21 299.11 307.33
  Q 298.50 307.35 298.50 306.74
  L 298.50 298.77
  Q 298.50 298.28 298.99 298.28
  Z
  M 326.36 312.78
  Q 334.53 313.43 343.32 312.86
  C 347.02 312.61 346.37 307.15 342.97 307.23
  Q 336.91 307.36 330.58 307.20
  Q 330.03 307.19 330.03 306.64
  Q 329.94 294.44 330.01 282.25
  C 330.04 277.26 324.01 277.77 324.01 281.50
  Q 323.98 295.93 324.01 310.24
  A 2.56 2.55 2.3 0 0 326.36 312.78
  Z
  M 361.11 300.72
  C 365.55 300.91 371.12 301.27 374.70 298.62
  C 381.30 293.73 379.83 282.99 372.91 279.55
  C 369.11 277.66 362.52 278.55 358.18 278.48
  A 3.12 3.12 0.0 0 0 355.01 281.59
  Q 354.97 295.27 355.02 309.27
  C 355.04 313.75 360.22 314.22 360.32 310.25
  Q 360.43 305.74 360.56 301.23
  Q 360.58 300.69 361.11 300.72
  Z
  M 153.43 338.97
  A 0.35 0.35 0.0 0 1 152.76 339.01
  L 150.63 333.52
  A 1.20 1.20 0.0 0 0 148.40 333.50
  L 146.16 338.99
  A 0.37 0.36 -42.2 0 1 145.47 338.96
  Q 144.29 335.02 142.83 330.99
  Q 142.56 330.23 142.09 330.11
  Q 141.53 329.95 140.74 330.40
  Q 140.12 330.76 140.35 331.43
  L 144.30 343.17
  A 1.20 1.20 0.0 0 0 146.53 343.28
  L 149.14 337.44
  A 0.34 0.34 0.0 0 1 149.76 337.44
  L 152.32 343.26
  A 1.21 1.21 0.0 0 0 154.57 343.15
  L 158.46 331.51
  A 1.15 1.15 0.0 0 0 157.28 330.00
  Q 156.39 330.06 156.15 330.66
  Q 154.49 334.82 153.43 338.97
  Z
  M 167.25 338.01
  Q 169.21 337.99 171.14 337.97
  Q 171.82 337.96 172.14 337.66
  Q 172.68 337.15 172.32 336.30
  A 0.90 0.90 0.0 0 0 171.49 335.75
  L 167.50 335.75
  Q 166.75 335.75 166.75 335.00
  L 166.75 332.79
  Q 166.75 332.24 167.30 332.24
  Q 169.61 332.26 171.93 332.25
  Q 172.65 332.24 172.98 331.94
  Q 173.50 331.44 173.16 330.52
  A 0.81 0.80 -10.7 0 0 172.41 330.01
  L 165.25 330.00
  A 1.00 0.99 -89.7 0 0 164.25 331.00
  L 164.25 342.77
  A 1.22 1.22 0.0 0 0 165.46 343.99
  Q 168.57 344.03 171.80 343.98
  Q 172.59 343.96 172.96 343.61
  Q 173.55 343.04 173.16 342.18
  Q 172.97 341.75 172.50 341.75
  L 167.50 341.75
  Q 166.75 341.75 166.75 341.00
  L 166.75 338.51
  Q 166.75 338.01 167.25 338.01
  Z
  M 190.16 332.55
  C 185.29 338.99 192.45 347.18 199.28 343.12
  Q 199.94 342.73 199.52 342.09
  L 199.07 341.42
  A 0.69 0.69 0.0 0 0 198.21 341.16
  C 189.70 345.00 187.81 329.80 198.69 332.84
  A 0.61 0.61 0.0 0 0 199.45 332.39
  Q 199.86 330.61 198.02 330.22
  Q 192.77 329.10 190.16 332.55
  Z
  M 208.64 340.77
  L 213.26 340.83
  Q 213.73 340.83 213.93 341.25
  Q 214.47 342.36 215.18 343.38
  Q 216.03 344.61 216.80 343.54
  A 1.25 1.24 -38.8 0 0 216.94 342.33
  L 211.95 330.55
  A 1.17 1.17 0.0 0 0 209.80 330.56
  L 204.74 342.75
  A 1.02 1.02 0.0 0 0 206.60 343.59
  L 207.72 341.34
  A 1.01 1.00 -76.6 0 1 208.64 340.77
  Z
  M 225.79 338.95
  L 230.33 339.12
  A 0.57 0.57 0.0 0 1 230.87 339.79
  Q 230.22 343.45 233.46 343.87
  A 0.63 0.63 0.0 0 0 234.13 343.04
  L 232.23 337.81
  Q 232.06 337.35 232.41 337.01
  Q 234.11 335.36 233.44 333.02
  C 232.31 329.00 227.04 329.97 223.94 330.00
  A 1.20 1.20 0.0 0 0 222.75 331.20
  L 222.75 343.00
  Q 222.75 343.75 223.50 343.75
  L 224.63 343.75
  A 0.63 0.62 90.0 0 0 225.25 343.12
  L 225.25 339.47
  Q 225.25 338.93 225.79 338.95
  Z
  M 243.50 338.00
  L 247.72 338.00
  A 0.97 0.97 0.0 0 0 248.68 337.18
  Q 248.91 335.77 247.51 335.81
  Q 245.55 335.86 243.57 335.68
  Q 243.00 335.63 243.00 335.05
  L 243.00 332.94
  Q 243.00 332.26 243.68 332.26
  Q 245.92 332.24 248.17 332.25
  Q 248.90 332.25 249.23 331.94
  Q 249.75 331.44 249.41 330.53
  A 0.81 0.80 79.3 0 0 248.66 330.01
  L 241.50 330.00
  A 1.00 0.99 -89.7 0 0 240.50 331.00
  L 240.50 342.75
  A 1.25 1.25 0.0 0 0 241.75 344.00
  L 248.50 344.00
  A 1.08 1.08 0.0 0 0 249.37 342.28
  Q 248.70 341.36 247.22 341.56
  Q 245.42 341.80 243.50 341.75
  A 0.51 0.51 0.0 0 1 243.00 341.24
  L 243.00 338.50
  Q 243.00 338.00 243.50 338.00
  Z
  M 268.43 338.13
  L 272.66 338.07
  A 1.03 1.03 0.0 0 0 272.93 336.05
  Q 270.77 335.44 268.57 335.92
  Q 268.00 336.05 268.00 335.46
  L 268.00 332.75
  Q 268.00 332.25 268.50 332.25
  L 273.46 332.25
  A 0.77 0.77 0.0 0 0 274.23 331.48
  L 274.23 330.67
  A 0.68 0.68 0.0 0 0 273.55 329.99
  L 266.45 330.03
  A 0.95 0.95 0.0 0 0 265.50 330.98
  L 265.50 343.17
  Q 265.50 343.83 266.17 343.83
  L 267.33 343.83
  A 0.67 0.66 0.0 0 0 268.00 343.17
  L 268.00 338.57
  Q 268.00 338.14 268.43 338.13
  Z
  M 286.7802 344.1498
  A 7.14 6.75 90.4 0 0 293.5798 337.0571
  A 7.14 6.75 90.4 0 0 286.8798 329.8702
  A 7.14 6.75 90.4 0 0 280.0802 336.9629
  A 7.14 6.75 90.4 0 0 286.7802 344.1498
  Z
  M 303.01 338.98
  L 307.24 339.04
  A 0.74 0.73 88.7 0 1 307.96 339.74
  C 308.09 341.81 308.61 344.85 311.16 343.61
  Q 311.54 343.43 311.39 343.04
  L 309.54 337.99
  Q 309.33 337.41 309.75 336.96
  C 312.09 334.45 310.58 330.26 307.00 330.10
  Q 303.98 329.96 301.19 330.00
  A 1.21 1.21 0.0 0 0 300.00 331.21
  L 300.00 343.15
  Q 300.00 343.80 300.65 343.83
  L 301.79 343.89
  A 0.69 0.68 -88.8 0 0 302.50 343.20
  L 302.50 339.49
  Q 302.50 338.97 303.01 338.98
  Z
  M 322.02 334.86
  Q 320.47 332.85 319.04 330.76
  Q 318.66 330.20 318.20 330.06
  Q 317.16 329.75 316.70 330.88
  A 1.05 1.04 38.0 0 0 316.83 331.91
  L 320.69 337.08
  Q 321.00 337.49 321.00 338.01
  L 321.00 343.06
  Q 321.00 343.64 321.56 343.76
  L 322.50 343.98
  A 0.79 0.79 0.0 0 0 323.46 343.22
  L 323.52 338.35
  Q 323.53 337.80 323.84 337.35
  Q 325.54 334.91 327.29 332.53
  Q 328.04 331.52 327.65 330.66
  A 1.12 1.11 -39.9 0 0 325.71 330.49
  L 322.76 334.83
  Q 322.41 335.36 322.02 334.86
  Z
  M 339.7052 344.1489
  A 7.15 6.76 91.0 0 0 346.5890 337.1180
  A 7.15 6.76 91.0 0 0 339.9548 329.8511
  A 7.15 6.76 91.0 0 0 333.0710 336.8820
  A 7.15 6.76 91.0 0 0 339.7052 344.1489
  Z
  M 355.44 343.06
  C 365.16 348.09 364.01 335.55 364.00 330.72
  Q 364.00 330.06 363.34 330.03
  L 362.55 329.99
  Q 361.94 329.96 361.89 330.58
  Q 361.61 334.20 361.73 337.84
  C 361.90 343.06 355.59 342.21 355.54 339.19
  Q 355.48 335.04 355.50 330.83
  A 0.71 0.70 -1.2 0 0 354.75 330.12
  L 353.73 330.16
  Q 353.08 330.19 353.06 330.85
  C 352.92 334.93 352.12 341.35 355.44 343.06
  Z"
/>
<path fill="#ee3224" d="
  M 247.79 157.15
  A 1.00 0.99 45.5 0 0 249.30 157.17
  C 261.90 142.79 285.01 156.81 277.82 174.22
  Q 276.52 177.36 271.91 181.77
  Q 260.01 193.14 248.38 204.47
  A 0.76 0.76 0.0 0 1 247.31 204.46
  Q 237.35 194.48 227.50 184.41
  C 220.06 176.81 215.19 170.63 219.80 160.57
  C 224.80 149.67 240.20 148.02 247.79 157.15
  Z"
/>
<path fill="#f57c67" d="
  M 211.12 209.41
  C 209.51 206.26 205.33 200.19 206.66 196.69
  C 207.98 193.21 212.12 191.53 215.32 193.57
  Q 216.99 194.63 218.67 197.87
  Q 226.14 212.32 233.89 226.63
  C 240.65 239.13 242.21 251.19 237.88 265.02
  A 0.93 0.93 0.0 0 1 237.21 265.64
  C 231.19 267.02 221.74 266.05 216.98 265.97
  Q 216.41 265.96 216.36 265.39
  C 215.49 255.49 212.32 249.33 205.84 241.07
  Q 182.30 211.02 181.75 172.10
  C 181.70 168.61 182.06 162.88 184.87 160.55
  C 188.30 157.73 193.13 159.75 194.48 163.69
  Q 194.97 165.10 194.95 169.37
  C 194.92 184.26 198.06 200.32 210.71 209.76
  Q 211.67 210.47 211.12 209.41
  Z"
/>
<path fill="#f57c67" d="
  M 289.31 209.75
  C 303.27 199.52 305.00 182.60 305.10 165.73
  C 305.15 158.65 315.48 156.28 317.52 164.53
  C 317.95 166.28 318.22 168.87 318.23 170.93
  Q 318.44 207.23 297.41 236.67
  C 293.10 242.69 288.51 247.49 285.80 255.10
  C 284.67 258.29 284.56 261.98 283.57 265.50
  Q 283.42 266.03 282.86 266.03
  L 263.07 265.94
  A 0.78 0.78 0.0 0 1 262.34 265.40
  C 257.50 250.48 259.67 238.62 266.98 225.20
  Q 274.40 211.56 281.47 197.77
  C 283.48 193.85 286.63 190.99 290.91 193.58
  C 297.16 197.36 291.02 205.02 288.94 209.45
  Q 288.53 210.33 289.31 209.75
  Z"
/>
<path fill="#1b548d" d="
  M 125.69 295.81
  C 119.79 292.64 120.71 283.57 125.73 280.31
  C 131.14 276.79 139.43 277.59 144.58 281.66
  C 146.58 283.24 145.40 286.78 142.62 286.80
  A 1.51 1.50 -27.3 0 1 141.70 286.51
  Q 137.07 283.15 131.57 283.84
  C 126.94 284.41 125.60 290.33 130.59 291.70
  C 137.63 293.64 148.95 294.87 146.09 305.59
  C 142.49 319.03 116.98 312.30 121.63 305.27
  A 2.52 2.51 -52.1 0 1 125.42 304.79
  C 128.87 307.92 137.09 309.65 140.32 304.75
  Q 140.58 304.36 140.54 303.88
  Q 140.18 299.49 136.24 298.96
  Q 130.02 298.14 125.69 295.81
  Z"
/>
<path fill="#1b548d" d="
  M 229.52 298.27
  A 0.71 0.71 0.0 0 0 228.44 298.19
  L 224.53 302.09
  A 1.00 0.96 -24.0 0 0 224.25 302.77
  L 224.25 310.48
  A 2.05 2.04 -17.0 0 1 223.34 312.18
  C 220.38 314.16 218.26 312.09 218.26 308.98
  Q 218.25 295.82 218.24 282.67
  C 218.24 277.33 224.21 277.24 224.23 281.70
  Q 224.26 288.04 224.25 294.17
  A 0.41 0.41 0.0 0 0 224.96 294.46
  Q 232.19 287.02 239.82 279.77
  C 243.24 276.51 246.90 280.19 244.43 282.69
  Q 239.29 287.90 233.99 292.97
  Q 233.62 293.32 233.92 293.73
  Q 238.51 299.83 243.06 305.86
  C 244.72 308.05 246.40 310.08 244.23 312.15
  C 242.63 313.67 240.68 312.86 239.40 311.25
  Q 234.27 304.77 229.52 298.27
  Z"
/>
<path fill="#1b548d" d="
  M 161.50 298.78
  L 161.50 306.94
  Q 161.50 307.41 161.97 307.39
  Q 168.28 307.07 174.48 307.38
  C 177.15 307.51 179.07 309.51 177.21 312.01
  A 2.46 2.43 18.0 0 1 175.24 313.00
  L 158.50 313.00
  A 3.00 3.00 0.0 0 1 155.50 310.00
  L 155.50 281.71
  A 3.24 3.24 0.0 0 1 158.75 278.47
  Q 166.68 278.48 174.99 278.74
  C 178.70 278.85 179.01 283.75 175.25 283.81
  Q 168.65 283.92 162.05 284.13
  Q 161.50 284.15 161.50 284.70
  L 161.50 291.72
  Q 161.50 292.45 162.23 292.46
  L 173.69 292.59
  A 0.91 0.89 68.1 0 1 174.35 292.88
  Q 176.90 295.52 174.21 297.94
  A 0.82 0.81 22.6 0 1 173.69 298.15
  L 161.97 298.30
  Q 161.50 298.30 161.50 298.78
  Z"
/>
<path fill="#1b548d" d="
  M 189.52 312.98
  A 2.53 2.52 0.1 0 1 187.00 310.46
  L 187.00 281.72
  A 3.24 3.23 -89.9 0 1 190.24 278.48
  Q 198.18 278.48 206.49 278.71
  C 210.34 278.82 210.45 283.93 206.31 283.96
  Q 199.95 284.01 193.58 284.18
  Q 193.00 284.20 193.00 284.78
  L 193.00 291.86
  Q 193.00 292.47 193.61 292.47
  L 204.59 292.56
  Q 205.16 292.56 205.63 292.89
  C 208.19 294.70 207.32 298.02 204.18 298.11
  Q 198.87 298.27 193.55 298.26
  Q 193.00 298.26 193.00 298.81
  L 193.00 306.55
  Q 193.00 307.21 193.66 307.21
  Q 199.99 307.24 206.15 307.51
  Q 209.98 307.67 209.27 311.07
  A 2.44 2.43 5.8 0 1 206.88 313.01
  L 189.52 312.98
  Z"
/>
<path fill="#1b548d" d="
  M 259.77 298.99
  Q 259.70 303.81 259.76 308.64
  C 259.82 314.32 253.78 314.19 253.76 309.24
  Q 253.72 295.66 253.77 282.07
  C 253.79 277.41 259.72 277.50 259.73 281.77
  Q 259.74 287.04 259.76 292.33
  Q 259.76 292.85 260.28 292.85
  L 275.12 292.89
  Q 275.64 292.89 275.66 292.37
  Q 275.95 285.19 275.76 283.01
  C 275.28 277.33 281.72 276.93 281.73 282.45
  Q 281.77 296.10 281.61 309.75
  C 281.55 314.19 275.63 314.12 275.74 308.86
  Q 275.84 303.95 275.57 299.06
  Q 275.54 298.50 274.98 298.50
  L 260.27 298.50
  Q 259.78 298.50 259.77 298.99
  Z"
/>
<path fill="#1b548d" d="
  M 298.50 298.77
  L 298.50 306.74
  Q 298.50 307.35 299.11 307.33
  C 303.17 307.21 309.01 306.65 312.81 307.65
  C 316.59 308.65 315.00 312.92 311.27 312.97
  Q 303.35 313.06 295.66 312.98
  A 3.20 3.20 0.0 0 1 292.50 309.78
  L 292.50 281.49
  A 2.98 2.98 0.0 0 1 295.46 278.51
  Q 302.70 278.47 310.47 278.50
  C 313.02 278.52 315.29 279.03 314.70 282.14
  A 2.24 2.23 -85.0 0 1 312.53 283.96
  L 299.19 284.12
  Q 298.50 284.13 298.50 284.82
  L 298.50 291.99
  Q 298.50 292.50 299.01 292.50
  Q 304.36 292.48 309.68 292.55
  C 313.56 292.61 313.78 298.17 309.24 298.19
  Q 304.13 298.22 298.99 298.28
  Q 298.50 298.28 298.50 298.77
  Z"
/>
<path fill="#1b548d" d="
  M 326.36 312.78
  A 2.56 2.55 2.3 0 1 324.01 310.24
  Q 323.98 295.93 324.01 281.50
  C 324.01 277.77 330.04 277.26 330.01 282.25
  Q 329.94 294.44 330.03 306.64
  Q 330.03 307.19 330.58 307.20
  Q 336.91 307.36 342.97 307.23
  C 346.37 307.15 347.02 312.61 343.32 312.86
  Q 334.53 313.43 326.36 312.78
  Z"
/>
<path fill="#1b548d" d="
  M 360.56 301.23
  Q 360.43 305.74 360.32 310.25
  C 360.22 314.22 355.04 313.75 355.02 309.27
  Q 354.97 295.27 355.01 281.59
  A 3.12 3.12 0.0 0 1 358.18 278.48
  C 362.52 278.55 369.11 277.66 372.91 279.55
  C 379.83 282.99 381.30 293.73 374.70 298.62
  C 371.12 301.27 365.55 300.91 361.11 300.72
  Q 360.58 300.69 360.56 301.23
  Z
  M 360.74 284.51
  L 360.68 294.65
  A 0.35 0.35 0.0 0 0 361.03 295.00
  L 368.40 295.04
  A 5.21 4.56 -89.7 0 0 372.99 289.85
  L 372.99 289.43
  A 5.21 4.56 -89.7 0 0 368.46 284.20
  L 361.09 284.16
  A 0.35 0.35 0.0 0 0 360.74 284.51
  Z"
/>
<path fill="#ffffff" d="
  M 360.74 284.51
  A 0.35 0.35 0.0 0 1 361.09 284.16
  L 368.46 284.20
  A 5.21 4.56 -89.7 0 1 372.99 289.43
  L 372.99 289.85
  A 5.21 4.56 -89.7 0 1 368.40 295.04
  L 361.03 295.00
  A 0.35 0.35 0.0 0 1 360.68 294.65
  L 360.74 284.51
  Z"
/>
<path fill="#3b6ca8" d="
  M 153.43 338.97
  Q 154.49 334.82 156.15 330.66
  Q 156.39 330.06 157.28 330.00
  A 1.15 1.15 0.0 0 1 158.46 331.51
  L 154.57 343.15
  A 1.21 1.21 0.0 0 1 152.32 343.26
  L 149.76 337.44
  A 0.34 0.34 0.0 0 0 149.14 337.44
  L 146.53 343.28
  A 1.20 1.20 0.0 0 1 144.30 343.17
  L 140.35 331.43
  Q 140.12 330.76 140.74 330.40
  Q 141.53 329.95 142.09 330.11
  Q 142.56 330.23 142.83 330.99
  Q 144.29 335.02 145.47 338.96
  A 0.37 0.36 -42.2 0 0 146.16 338.99
  L 148.40 333.50
  A 1.20 1.20 0.0 0 1 150.63 333.52
  L 152.76 339.01
  A 0.35 0.35 0.0 0 0 153.43 338.97
  Z"
/>
<path fill="#3b6ca8" d="
  M 166.75 338.51
  L 166.75 341.00
  Q 166.75 341.75 167.50 341.75
  L 172.50 341.75
  Q 172.97 341.75 173.16 342.18
  Q 173.55 343.04 172.96 343.61
  Q 172.59 343.96 171.80 343.98
  Q 168.57 344.03 165.46 343.99
  A 1.22 1.22 0.0 0 1 164.25 342.77
  L 164.25 331.00
  A 1.00 0.99 -89.7 0 1 165.25 330.00
  L 172.41 330.01
  A 0.81 0.80 -10.7 0 1 173.16 330.52
  Q 173.50 331.44 172.98 331.94
  Q 172.65 332.24 171.93 332.25
  Q 169.61 332.26 167.30 332.24
  Q 166.75 332.24 166.75 332.79
  L 166.75 335.00
  Q 166.75 335.75 167.50 335.75
  L 171.49 335.75
  A 0.90 0.90 0.0 0 1 172.32 336.30
  Q 172.68 337.15 172.14 337.66
  Q 171.82 337.96 171.14 337.97
  Q 169.21 337.99 167.25 338.01
  Q 166.75 338.01 166.75 338.51
  Z"
/>
<path fill="#3b6ca8" d="
  M 199.28 343.12
  C 192.45 347.18 185.29 338.99 190.16 332.55
  Q 192.77 329.10 198.02 330.22
  Q 199.86 330.61 199.45 332.39
  A 0.61 0.61 0.0 0 1 198.69 332.84
  C 187.81 329.80 189.70 345.00 198.21 341.16
  A 0.69 0.69 0.0 0 1 199.07 341.42
  L 199.52 342.09
  Q 199.94 342.73 199.28 343.12
  Z"
/>
<path fill="#3b6ca8" d="
  M 207.72 341.34
  L 206.60 343.59
  A 1.02 1.02 0.0 0 1 204.74 342.75
  L 209.80 330.56
  A 1.17 1.17 0.0 0 1 211.95 330.55
  L 216.94 342.33
  A 1.25 1.24 -38.8 0 1 216.80 343.54
  Q 216.03 344.61 215.18 343.38
  Q 214.47 342.36 213.93 341.25
  Q 213.73 340.83 213.26 340.83
  L 208.64 340.77
  A 1.01 1.00 -76.6 0 0 207.72 341.34
  Z
  M 212.12 338.44
  Q 212.76 338.39 212.50 337.80
  L 211.17 334.76
  A 0.42 0.41 43.9 0 0 210.40 334.77
  L 209.12 338.12
  A 0.41 0.40 -82.2 0 0 209.53 338.67
  L 212.12 338.44
  Z"
/>
<path fill="#3b6ca8" d="
  M 225.25 339.47
  L 225.25 343.12
  A 0.63 0.62 -90.0 0 1 224.63 343.75
  L 223.50 343.75
  Q 222.75 343.75 222.75 343.00
  L 222.75 331.20
  A 1.20 1.20 0.0 0 1 223.94 330.00
  C 227.04 329.97 232.31 329.00 233.44 333.02
  Q 234.11 335.36 232.41 337.01
  Q 232.06 337.35 232.23 337.81
  L 234.13 343.04
  A 0.63 0.63 0.0 0 1 233.46 343.87
  Q 230.22 343.45 230.87 339.79
  A 0.57 0.57 0.0 0 0 230.33 339.12
  L 225.79 338.95
  Q 225.25 338.93 225.25 339.47
  Z
  M 225.25 332.73
  L 225.25 336.31
  A 0.47 0.47 0.0 0 0 225.72 336.77
  L 229.12 336.77
  A 1.96 1.89 89.9 0 0 231.01 334.80
  L 231.01 334.20
  A 1.96 1.89 89.9 0 0 229.12 332.25
  L 225.72 332.25
  A 0.47 0.47 0.0 0 0 225.25 332.73
  Z"
/>
<path fill="#3b6ca8" d="
  M 243.00 338.50
  L 243.00 341.24
  A 0.51 0.51 0.0 0 0 243.50 341.75
  Q 245.42 341.80 247.22 341.56
  Q 248.70 341.36 249.37 342.28
  A 1.08 1.08 0.0 0 1 248.50 344.00
  L 241.75 344.00
  A 1.25 1.25 0.0 0 1 240.50 342.75
  L 240.50 331.00
  A 1.00 0.99 -89.7 0 1 241.50 330.00
  L 248.66 330.01
  A 0.81 0.80 79.3 0 1 249.41 330.53
  Q 249.75 331.44 249.23 331.94
  Q 248.90 332.25 248.17 332.25
  Q 245.92 332.24 243.68 332.26
  Q 243.00 332.26 243.00 332.94
  L 243.00 335.05
  Q 243.00 335.63 243.57 335.68
  Q 245.55 335.86 247.51 335.81
  Q 248.91 335.77 248.68 337.18
  A 0.97 0.97 0.0 0 1 247.72 338.00
  L 243.50 338.00
  Q 243.00 338.00 243.00 338.50
  Z"
/>
<path fill="#3b6ca8" d="
  M 268.00 338.57
  L 268.00 343.17
  A 0.67 0.66 0.0 0 1 267.33 343.83
  L 266.17 343.83
  Q 265.50 343.83 265.50 343.17
  L 265.50 330.98
  A 0.95 0.95 0.0 0 1 266.45 330.03
  L 273.55 329.99
  A 0.68 0.68 0.0 0 1 274.23 330.67
  L 274.23 331.48
  A 0.77 0.77 0.0 0 1 273.46 332.25
  L 268.50 332.25
  Q 268.00 332.25 268.00 332.75
  L 268.00 335.46
  Q 268.00 336.05 268.57 335.92
  Q 270.77 335.44 272.93 336.05
  A 1.03 1.03 0.0 0 1 272.66 338.07
  L 268.43 338.13
  Q 268.00 338.14 268.00 338.57
  Z"
/>
<path fill="#3b6ca8" d="
  M 286.7802 344.1498
  A 7.14 6.75 90.4 0 1 280.0802 336.9629
  A 7.14 6.75 90.4 0 1 286.8798 329.8702
  A 7.14 6.75 90.4 0 1 293.5798 337.0571
  A 7.14 6.75 90.4 0 1 286.7802 344.1498
  Z
  M 286.8500 341.7300
  A 4.72 4.13 90.0 0 0 290.9800 337.0100
  A 4.72 4.13 90.0 0 0 286.8500 332.2900
  A 4.72 4.13 90.0 0 0 282.7200 337.0100
  A 4.72 4.13 90.0 0 0 286.8500 341.7300
  Z"
/>
<path fill="#3b6ca8" d="
  M 302.50 339.49
  L 302.50 343.20
  A 0.69 0.68 -88.8 0 1 301.79 343.89
  L 300.65 343.83
  Q 300.00 343.80 300.00 343.15
  L 300.00 331.21
  A 1.21 1.21 0.0 0 1 301.19 330.00
  Q 303.98 329.96 307.00 330.10
  C 310.58 330.26 312.09 334.45 309.75 336.96
  Q 309.33 337.41 309.54 337.99
  L 311.39 343.04
  Q 311.54 343.43 311.16 343.61
  C 308.61 344.85 308.09 341.81 307.96 339.74
  A 0.74 0.73 88.7 0 0 307.24 339.04
  L 303.01 338.98
  Q 302.50 338.97 302.50 339.49
  Z
  M 302.50 332.73
  L 302.50 336.31
  A 0.47 0.47 0.0 0 0 302.97 336.77
  L 306.37 336.77
  A 1.96 1.89 89.9 0 0 308.26 334.80
  L 308.26 334.20
  A 1.96 1.89 89.9 0 0 306.37 332.25
  L 302.97 332.25
  A 0.47 0.47 0.0 0 0 302.50 332.73
  Z"
/>
<path fill="#3b6ca8" d="
  M 322.76 334.83
  L 325.71 330.49
  A 1.12 1.11 -39.9 0 1 327.65 330.66
  Q 328.04 331.52 327.29 332.53
  Q 325.54 334.91 323.84 337.35
  Q 323.53 337.80 323.52 338.35
  L 323.46 343.22
  A 0.79 0.79 0.0 0 1 322.50 343.98
  L 321.56 343.76
  Q 321.00 343.64 321.00 343.06
  L 321.00 338.01
  Q 321.00 337.49 320.69 337.08
  L 316.83 331.91
  A 1.05 1.04 38.0 0 1 316.70 330.88
  Q 317.16 329.75 318.20 330.06
  Q 318.66 330.20 319.04 330.76
  Q 320.47 332.85 322.02 334.86
  Q 322.41 335.36 322.76 334.83
  Z"
/>
<path fill="#3b6ca8" d="
  M 339.7052 344.1489
  A 7.15 6.76 91.0 0 1 333.0710 336.8820
  A 7.15 6.76 91.0 0 1 339.9548 329.8511
  A 7.15 6.76 91.0 0 1 346.5890 337.1180
  A 7.15 6.76 91.0 0 1 339.7052 344.1489
  Z
  M 339.8975 341.6996
  A 4.71 4.13 89.3 0 0 343.9697 336.9395
  A 4.71 4.13 89.3 0 0 339.7825 332.2804
  A 4.71 4.13 89.3 0 0 335.7103 337.0405
  A 4.71 4.13 89.3 0 0 339.8975 341.6996
  Z"
/>
<path fill="#3b6ca8" d="
  M 355.44 343.06
  C 352.12 341.35 352.92 334.93 353.06 330.85
  Q 353.08 330.19 353.73 330.16
  L 354.75 330.12
  A 0.71 0.70 -1.2 0 1 355.50 330.83
  Q 355.48 335.04 355.54 339.19
  C 355.59 342.21 361.90 343.06 361.73 337.84
  Q 361.61 334.20 361.89 330.58
  Q 361.94 329.96 362.55 329.99
  L 363.34 330.03
  Q 364.00 330.06 364.00 330.72
  C 364.01 335.55 365.16 348.09 355.44 343.06
  Z"
/>
<path fill="#ffffff" d="
  M 225.25 332.73
  A 0.47 0.47 0.0 0 1 225.72 332.25
  L 229.12 332.25
  A 1.96 1.89 89.9 0 1 231.01 334.20
  L 231.01 334.80
  A 1.96 1.89 89.9 0 1 229.12 336.77
  L 225.72 336.77
  A 0.47 0.47 0.0 0 1 225.25 336.31
  L 225.25 332.73
  Z"
/>
<ellipse fill="#ffffff" cx="0.00" cy="0.00" transform="translate(286.85,337.01) rotate(90.0)" rx="4.72" ry="4.13"/>
<path fill="#ffffff" d="
  M 302.50 332.73
  A 0.47 0.47 0.0 0 1 302.97 332.25
  L 306.37 332.25
  A 1.96 1.89 89.9 0 1 308.26 334.20
  L 308.26 334.80
  A 1.96 1.89 89.9 0 1 306.37 336.77
  L 302.97 336.77
  A 0.47 0.47 0.0 0 1 302.50 336.31
  L 302.50 332.73
  Z"
/>
<ellipse fill="#ffffff" cx="0.00" cy="0.00" transform="translate(339.84,336.99) rotate(89.3)" rx="4.71" ry="4.13"/>
<path fill="#ffffff" d="
  M 212.12 338.44
  L 209.53 338.67
  A 0.41 0.40 -82.2 0 1 209.12 338.12
  L 210.40 334.77
  A 0.42 0.41 43.9 0 1 211.17 334.76
  L 212.50 337.80
  Q 212.76 338.39 212.12 338.44
  Z"
/>
</svg>
